<svg width="27" height="26" viewBox="0 0 27 26" fill="none" xmlns="http://www.w3.org/2000/svg">
<g clip-path="url(#clip0_149:2131)">
<path d="M18.1942 0H8.27009C3.70335 0 0 3.63838 0 8.125V17.875C0 22.3616 3.70335 26 8.27009 26H18.1942C22.7609 26 26.4643 22.3616 26.4643 17.875V8.125C26.4643 3.63838 22.7609 0 18.1942 0ZM23.9833 17.875C23.9833 21.0112 21.3864 23.5625 18.1942 23.5625H8.27009C5.07783 23.5625 2.48103 21.0112 2.48103 17.875V8.125C2.48103 4.98875 5.07783 2.4375 8.27009 2.4375H18.1942C21.3864 2.4375 23.9833 4.98875 23.9833 8.125V17.875Z" fill="#F6F6F6"/>
<path d="M13.2323 6.5C9.57856 6.5 6.61621 9.41037 6.61621 13C6.61621 16.5896 9.57856 19.5 13.2323 19.5C16.886 19.5 19.8484 16.5896 19.8484 13C19.8484 9.41037 16.886 6.5 13.2323 6.5ZM13.2323 17.0625C10.953 17.0625 9.09724 15.2393 9.09724 13C9.09724 10.7591 10.953 8.9375 13.2323 8.9375C15.5115 8.9375 17.3673 10.7591 17.3673 13C17.3673 15.2393 15.5115 17.0625 13.2323 17.0625Z" fill="#F6F6F6"/>
<path d="M20.344 6.87873C20.8309 6.87873 21.2256 6.49096 21.2256 6.01261C21.2256 5.53426 20.8309 5.14648 20.344 5.14648C19.8571 5.14648 19.4624 5.53426 19.4624 6.01261C19.4624 6.49096 19.8571 6.87873 20.344 6.87873Z" fill="#F6F6F6"/>
</g>
<defs>
<clipPath id="clip0_149:2131">
<rect width="26.4643" height="26" fill="white"/>
</clipPath>
</defs>
</svg>
