<svg width="99" height="74" viewBox="0 0 99 74" fill="none" xmlns="http://www.w3.org/2000/svg">
<path d="M85.3337 42.2241C81.9075 42.2434 78.9407 43.0663 76.4524 44.2915C75.5337 42.4731 74.6149 40.8843 74.462 39.6977C74.2897 38.3196 74.0792 37.4772 74.2897 35.8313C74.5001 34.185 75.4571 31.8499 75.4571 31.6585C75.4378 31.4862 75.2464 30.644 73.2751 30.6249C71.3038 30.6057 69.6001 31.0077 69.4087 31.5245C69.2173 32.0413 68.8345 33.228 68.5856 34.453C68.2411 36.2522 64.6427 42.6261 62.5946 45.9757C61.9247 44.6741 61.3505 43.5257 61.2355 42.6067C61.0634 41.2288 60.8526 40.3864 61.0634 38.7405C61.2739 37.0942 62.231 34.7593 62.231 34.5679C62.2118 34.3956 62.0204 33.5534 60.0491 33.5343C58.0774 33.5151 56.3741 33.9171 56.1827 34.4339C55.9913 34.9507 55.7808 36.1757 55.3597 37.3624C54.9575 38.5491 50.1724 49.1913 48.9282 51.9667C48.2966 53.3831 47.7417 54.5124 47.3396 55.278C46.9376 56.0436 47.3204 55.3354 47.2821 55.412C46.9376 56.0628 46.7462 56.4265 46.7462 56.4265V56.4458C46.4782 56.9243 46.1911 57.3835 46.057 57.3835C45.9613 57.3835 45.7698 56.1011 46.0952 54.3403C46.8034 50.646 48.5261 44.8848 48.5071 44.6743C48.5071 44.5786 48.8323 43.5639 47.3968 43.0473C45.9995 42.5305 45.5021 43.3919 45.387 43.3919C45.2722 43.3919 45.1765 43.6981 45.1765 43.6981C45.1765 43.6981 46.7269 37.2096 42.2097 37.2096C39.3769 37.2096 35.4722 40.2913 33.539 43.105C32.314 43.7749 29.7109 45.1911 26.9546 46.7034C25.9019 47.2776 24.8109 47.8901 23.7773 48.4452L23.5669 48.2151C18.0927 42.3772 7.96735 38.2429 8.38844 30.3952C8.54156 27.5432 9.53688 20.021 27.8355 10.91C42.8226 3.44519 54.8237 5.49319 56.9099 10.0487C59.8767 16.5565 50.4978 28.6534 34.9175 30.3952C28.9839 31.0651 25.8638 28.7682 25.0792 27.9069C24.2562 27.0073 24.1413 26.969 23.8351 27.1413C23.3374 27.4093 23.6437 28.2132 23.8351 28.6917C24.2945 29.8975 26.2085 32.0413 29.4624 33.1132C32.3142 34.0511 39.2816 34.5679 47.7034 31.3139C57.1397 27.6581 64.5089 17.5135 62.346 9.03419C60.1448 0.401789 45.8276 -2.43101 32.2952 2.37329C24.2369 5.24439 15.5087 9.72329 9.23063 15.5995C1.76579 22.5667 0.579072 28.6534 1.07673 31.18C2.81871 40.1952 15.2408 46.0714 20.2173 50.4163C19.9685 50.5501 19.7388 50.6841 19.5283 50.7991C17.04 52.0239 7.56539 56.9815 5.19196 62.2259C2.51227 68.1595 5.61305 72.428 7.68024 73.0022C14.0732 74.7823 20.6193 71.5858 24.1603 66.3222C27.682 61.0585 27.2611 54.2253 25.6341 51.1054L25.5765 50.9905L27.5288 49.8421C28.7923 49.0956 30.0365 48.4065 31.1273 47.813C30.515 49.4782 30.0745 51.4497 29.8451 54.3208C29.5771 57.6897 30.9552 62.0536 32.7736 63.7763C33.5775 64.5226 34.5345 64.5419 35.1279 64.5419C37.2333 64.5419 38.1904 62.7999 39.2431 60.7138C40.5447 58.1681 41.6931 55.2204 41.6931 55.2204C41.6931 55.2204 40.2575 63.2021 44.1814 63.2021C45.6169 63.2021 47.0525 61.3454 47.7032 60.3884V60.4075C47.7032 60.4075 47.7415 60.3501 47.8181 60.2161C47.8984 60.0974 47.975 59.9761 48.0478 59.8526V59.8143C48.622 58.819 49.9044 56.5413 51.8185 52.7706C54.2874 47.9089 56.661 41.8222 56.661 41.8222C56.661 41.8222 56.8907 43.3151 57.5989 45.7651C58.0198 47.22 58.9386 48.8085 59.6468 50.3589C59.0726 51.1628 58.728 51.6223 58.728 51.6223L58.7472 51.6415C58.288 52.254 57.771 52.905 57.2353 53.5556C55.2829 55.8907 52.9478 58.5515 52.6415 59.3171C52.2778 60.2165 52.3544 60.8864 53.0626 61.4225C53.5794 61.8054 54.4982 61.8817 55.4743 61.8054C57.2353 61.6903 58.4603 61.2503 59.0728 60.9821C60.0298 60.6376 61.1208 60.1208 62.1735 59.3552C64.0876 57.939 65.2552 55.9292 65.1403 53.2495C65.0829 51.7757 64.6044 50.321 64.011 48.9428C64.1833 48.694 64.3558 48.445 64.5278 48.1772C67.552 43.7555 69.8872 38.894 69.8872 38.894C69.8872 38.894 70.1169 40.387 70.8251 42.837C71.1886 44.0811 71.9161 45.4403 72.5669 46.7801C69.7341 49.0962 67.954 51.7759 67.3415 53.5368C66.2122 56.7907 67.0927 58.2645 68.7579 58.6091C69.5042 58.7622 70.5763 58.4177 71.38 58.0731C72.3753 57.7477 73.5811 57.1925 74.6915 56.3696C76.6055 54.9532 78.443 52.9817 78.3473 50.3212C78.2899 49.0962 77.9645 47.8903 77.5243 46.7419C79.936 45.7466 83.0557 45.1723 87.018 45.6509C95.5356 46.6462 97.22 51.9673 96.8948 54.1876C96.5694 56.4081 94.7893 57.6329 94.1958 58.0157C93.6024 58.3794 93.411 58.5136 93.4684 58.7813C93.545 59.1835 93.8129 59.1641 94.3297 59.0878C95.0379 58.9727 98.8086 57.2694 98.9618 53.1735C99.1915 47.9091 94.1958 42.1669 85.3337 42.2241ZM19.6431 64.3698C16.8294 67.4515 12.8673 68.619 11.183 67.6237C9.36461 66.571 10.0726 62.0347 13.5373 58.7616C15.6427 56.771 18.3798 54.9335 20.179 53.8042C20.581 53.5554 21.1935 53.1919 21.9208 52.7515C22.0357 52.6751 22.1123 52.6366 22.1123 52.6366C22.2462 52.56 22.3994 52.4643 22.5525 52.3686C23.8349 57.039 22.6099 61.1351 19.6431 64.3698ZM40.2193 50.378C39.2431 52.7706 37.1759 58.9147 35.9318 58.5702C34.8597 58.2831 34.2091 53.6319 35.721 49.0382C36.4867 46.722 38.1136 43.9659 39.0706 42.8938C40.6212 41.1712 42.3054 40.597 42.7267 41.3052C43.2243 42.2241 40.8318 48.885 40.2193 50.378ZM57.197 58.4936C56.7759 58.7044 56.3931 58.8573 56.2208 58.7427C56.0868 58.6661 56.3929 58.379 56.3929 58.379C56.3929 58.379 58.5175 56.1013 59.3597 55.0485C59.8382 54.4362 60.4124 53.728 61.0249 52.9239V53.1536C61.0251 55.9097 58.3837 57.7472 57.197 58.4936ZM70.289 55.5077C69.9827 55.278 70.0212 54.5698 71.0546 52.3495C71.4567 51.469 72.3753 49.9952 73.964 48.5979C74.1554 49.1722 74.2704 49.727 74.2511 50.244C74.2321 53.6893 71.7821 54.9718 70.289 55.5077Z" fill="#F6F6F6"/>
</svg>
