<svg width="98" height="98" viewBox="0 0 98 98" fill="none" xmlns="http://www.w3.org/2000/svg">
<path d="M96.152 44.6336L53.3642 1.84813C50.9015 -0.616043 46.905 -0.616043 44.4393 1.84813L35.5542 10.7332L46.8253 22.0044C49.4445 21.1193 52.4481 21.7131 54.536 23.8009C56.6338 25.9022 57.2233 28.9314 56.3168 31.559L67.1791 42.4217C69.8071 41.5164 72.8394 42.1021 74.9384 44.2045C77.8719 47.1368 77.8719 51.8895 74.9384 54.8237C72.0041 57.7584 67.2515 57.7584 64.3157 54.8237C62.1092 52.6149 61.564 49.3744 62.6811 46.656L52.5511 36.526L52.5499 63.184C53.2843 63.5471 53.955 64.0267 54.536 64.6042C57.4695 67.5366 57.4695 72.2896 54.536 75.2262C51.6017 78.1593 46.8468 78.1593 43.9167 75.2262C40.9832 72.2896 40.9832 67.537 43.9167 64.6046C44.6197 63.9013 45.4552 63.3443 46.3748 62.9658V36.0594C45.4538 35.6834 44.6179 35.1261 43.9167 34.4206C41.6941 32.201 41.1597 28.9398 42.2986 26.2107L31.1878 15.0988L1.84899 44.4357C-0.61633 46.9022 -0.61633 50.8991 1.84899 53.3637L44.6376 96.15C47.101 98.6145 51.0968 98.6145 53.5632 96.15L96.1516 53.5624C98.6161 51.0971 98.6161 47.0978 96.1516 44.6336" fill="#F6F6F6"/>
</svg>
