<svg width="100" height="100" viewBox="0 0 100 100" fill="none" xmlns="http://www.w3.org/2000/svg">
<path d="M47.0766 44.3662C46.5539 44.3498 46.1293 44.7582 46.113 45.2645V49.9683C43.8754 48.1717 40.5925 48.531 38.7959 50.7686C38.0609 51.6996 37.6526 52.8428 37.6526 54.0351C37.6036 56.9097 39.8902 59.2779 42.7648 59.3269C45.6393 59.3759 48.0076 57.0893 48.0565 54.2148V45.3298C48.0565 45.0685 47.9586 44.8235 47.7789 44.6438C47.5829 44.4642 47.3379 44.3662 47.0766 44.3662ZM45.8516 55.2927C45.525 56.0767 44.9043 56.6974 44.1204 57.0403C43.3037 57.3833 42.3891 57.3833 41.5725 57.0403C40.7885 56.7137 40.1842 56.0767 39.8575 55.3091C39.5146 54.5088 39.5146 53.5941 39.8575 52.7775C40.1842 51.9935 40.8048 51.3729 41.5725 51.0462C42.3891 50.7033 43.3037 50.7033 44.1204 51.0462C44.9043 51.3892 45.525 52.0099 45.8516 52.7938C46.1946 53.5778 46.1946 54.4924 45.8516 55.2927ZM57.9378 50.3603C55.9126 48.335 52.6134 48.335 50.5881 50.3603C49.6082 51.3402 49.0692 52.6632 49.0692 54.0351C49.0202 56.9097 51.3068 59.2779 54.1813 59.3269C57.0559 59.3759 59.4241 57.0893 59.4731 54.2148V54.0351C59.4731 53.3492 59.3424 52.6795 59.0811 52.0425C58.8198 51.4056 58.4278 50.8339 57.9378 50.3603ZM57.2682 55.2764C57.1049 55.6684 56.8599 56.0114 56.5659 56.3054C56.2719 56.5994 55.9126 56.8443 55.5369 57.0077C54.7203 57.3507 53.8057 57.3507 52.989 57.0077C52.2051 56.681 51.5844 56.044 51.2578 55.2764C50.9148 54.4761 50.9148 53.5615 51.2578 52.7448C51.5844 51.9609 52.2051 51.3566 52.989 51.0136C53.8057 50.6706 54.7203 50.6706 55.5369 51.0136C55.9289 51.1769 56.2719 51.4219 56.5659 51.7159C56.8599 52.0099 57.1049 52.3692 57.2682 52.7448C57.6112 53.5778 57.6112 54.4924 57.2682 55.2764ZM79.448 49.7886C79.448 49.658 79.4153 49.5273 79.3663 49.413C79.3173 49.2986 79.2356 49.2006 79.154 49.1027C79.0723 49.021 78.958 48.9393 78.8437 48.8903C78.7293 48.8413 78.5987 48.8087 78.468 48.8087C78.2883 48.8087 78.1087 48.8577 77.9454 48.9557L72.3922 52.5652V45.3461C72.3922 45.0848 72.2942 44.8398 72.1146 44.6602C71.9349 44.4805 71.6899 44.3662 71.4286 44.3662C70.8896 44.3662 70.465 44.7908 70.4487 45.3298V58.249C70.4487 58.5103 70.5467 58.7553 70.7263 58.9349C70.906 59.1309 71.151 59.2289 71.4123 59.2289C71.6736 59.2289 71.9186 59.1309 72.0983 58.9349C72.2779 58.7553 72.3922 58.5103 72.3759 58.249V54.9008L73.5029 54.1658L77.7984 58.9839C77.978 59.1473 78.2067 59.2452 78.4517 59.2289C78.5823 59.2289 78.713 59.2126 78.8273 59.1473C78.9417 59.0983 79.0396 59.0329 79.1376 58.9349C79.2193 58.8369 79.301 58.7389 79.35 58.6246C79.399 58.5103 79.4316 58.3796 79.4316 58.249C79.4316 58.004 79.3336 57.759 79.1703 57.5793L75.1851 53.0878L79.0723 50.5563C79.3336 50.3929 79.4643 50.0989 79.448 49.7886ZM63.3276 51.7159C63.6216 51.4219 63.9809 51.1769 64.3729 51.0136C64.7812 50.8503 65.2059 50.7523 65.6469 50.7523C66.0388 50.7523 66.4145 50.8176 66.7738 50.9482C67.1331 51.0952 67.4761 51.2912 67.7701 51.5526C67.9498 51.6995 68.1784 51.7649 68.4071 51.7649C68.6684 51.7812 68.9297 51.6832 69.1094 51.4872C69.289 51.3076 69.387 51.0462 69.387 50.7849C69.387 50.5073 69.2727 50.2296 69.044 50.0499C68.1131 49.217 66.9045 48.7597 65.6469 48.7923C62.7723 48.7923 60.4367 51.1279 60.4367 54.0025C60.4367 56.877 62.756 59.1963 65.6142 59.2126C66.8718 59.2126 68.0804 58.7716 69.0277 57.955C69.2237 57.7753 69.338 57.514 69.338 57.2363C69.3544 56.7137 68.946 56.289 68.4397 56.2727H68.3744C68.1457 56.2727 67.9334 56.338 67.7538 56.4687C67.4598 56.73 67.1331 56.926 66.7738 57.073C66.4145 57.2037 66.0225 57.269 65.6469 57.269C65.2059 57.269 64.7812 57.1873 64.3729 57.0077C63.9809 56.8443 63.6379 56.5994 63.3276 56.3054C62.0537 55.0314 62.0537 52.9735 63.3113 51.6995C63.3276 51.7322 63.3276 51.7322 63.3276 51.7159ZM98.7369 49.4783C98.5409 49.2986 98.3286 49.168 98.0836 49.0863C97.8059 48.9883 97.5119 48.923 97.2179 48.8903C96.9239 48.8577 96.6299 48.8413 96.336 48.8413C95.748 48.8413 95.1437 48.9393 94.5884 49.1516C94.0331 49.3476 93.5267 49.6416 93.0694 50.001V49.805C93.0531 49.266 92.5958 48.8577 92.0568 48.874C91.8125 48.8821 91.5804 48.9828 91.4075 49.1557C91.2347 49.3286 91.134 49.5606 91.1258 49.805V58.2816C91.1422 58.8206 91.5995 59.2289 92.1385 59.2126C92.3828 59.2044 92.6149 59.1037 92.7877 58.9309C92.9606 58.758 93.0613 58.5259 93.0694 58.2816V54.0515C93.0694 53.6105 93.1511 53.1858 93.3308 52.7775C93.4941 52.3855 93.7227 52.0425 94.0331 51.7485C94.327 51.4546 94.6864 51.2096 95.062 51.0462C95.4703 50.8829 95.895 50.7849 96.336 50.7849C96.7769 50.7849 97.2016 50.8666 97.6099 51.0136C97.7406 51.0789 97.8712 51.1116 98.0182 51.1116C98.1489 51.1116 98.2796 51.0952 98.3939 51.0299C98.5082 50.9809 98.6062 50.9156 98.7042 50.8176C98.7859 50.7359 98.8675 50.6216 98.9165 50.5073C98.9655 50.3929 98.9982 50.2623 98.9982 50.1316C99.0145 49.8866 98.9165 49.658 98.7369 49.4783ZM89.7212 52.0425C88.8883 50.1153 86.9937 48.8577 84.9031 48.8413C82.0285 48.8413 79.7093 51.1606 79.693 54.0351C79.693 56.9097 82.0285 59.2453 84.9031 59.2453C86.1444 59.2453 87.353 58.8043 88.3003 57.9876L88.3329 57.955C88.4146 57.8896 88.4963 57.808 88.5453 57.71C88.8556 57.2527 88.7413 56.6484 88.3003 56.338C87.9246 56.093 87.4346 56.142 87.108 56.4524C87.0753 56.485 86.9773 56.5667 86.9773 56.583L86.961 56.5994C86.6834 56.828 86.373 57.024 86.03 57.1383C85.6707 57.269 85.2951 57.3343 84.9031 57.318C84.5438 57.318 84.2008 57.269 83.8578 57.1547C83.5311 57.0403 83.2208 56.8933 82.9432 56.681C82.6655 56.485 82.4205 56.24 82.2245 55.9624C82.0122 55.6847 81.8652 55.3581 81.7672 55.0314H89.1169C89.3782 55.0314 89.6232 54.9334 89.8029 54.7538C89.9989 54.5741 90.0969 54.3291 90.0805 54.0678C90.0969 53.3655 89.9662 52.6795 89.7212 52.0425ZM81.7672 53.0878C81.8652 52.7448 82.0122 52.4345 82.2245 52.1569C82.4205 51.8792 82.6655 51.6342 82.9432 51.4382C83.2208 51.2422 83.5311 51.0789 83.8578 50.9646C84.1845 50.8502 84.5438 50.8013 84.8868 50.8013C85.2297 50.8013 85.5891 50.8502 85.9157 50.9646C86.569 51.1769 87.1407 51.6016 87.549 52.1569C87.7613 52.4345 87.9083 52.7612 88.0226 53.0878H81.7672ZM95.4213 57.8243C95.0457 57.8243 94.7517 58.1346 94.7517 58.5103C94.7517 58.8859 95.062 59.1799 95.4377 59.1799C95.8133 59.1799 96.1073 58.8696 96.1073 58.5103C96.1073 58.1183 95.797 57.8243 95.4213 57.8243ZM95.4213 59.0329C95.1273 59.0493 94.8824 58.8206 94.866 58.5266C94.8497 58.2326 95.0784 57.9876 95.3723 57.9713C95.6663 57.955 95.9113 58.1836 95.9276 58.4776V58.5103C95.944 58.7879 95.7153 59.0329 95.4377 59.0329H95.4213Z" fill="#F6F6F6"/>
<path d="M95.5847 58.5102C95.6664 58.4939 95.7154 58.4285 95.7154 58.3469C95.7154 58.2815 95.699 58.2325 95.65 58.1999C95.5847 58.1672 95.503 58.1509 95.4214 58.1509C95.3397 58.1509 95.2417 58.1509 95.1601 58.1672V58.8368H95.307V58.5755H95.3724C95.454 58.5755 95.503 58.6082 95.5194 58.6735C95.5357 58.7225 95.552 58.7878 95.5684 58.8368H95.7317C95.699 58.7878 95.6827 58.7225 95.6827 58.6735C95.699 58.6082 95.65 58.5429 95.5847 58.5102ZM95.3887 58.4612H95.307V58.2652H95.3887C95.4867 58.2652 95.5357 58.3142 95.5357 58.3632C95.552 58.4285 95.4704 58.4775 95.3887 58.4612ZM35.8724 46.5547C35.7744 46.473 34.8925 45.8034 32.9979 45.8034C32.5079 45.8034 32.0016 45.8524 31.5116 45.934C31.1523 43.4351 29.078 42.2265 28.9964 42.1612L28.49 41.8672L28.1634 42.3408C27.7551 42.9778 27.4447 43.6964 27.2651 44.4314C26.9221 45.8524 27.1344 47.1916 27.8531 48.3349C26.9874 48.8249 25.5828 48.9392 25.2888 48.9556H2.09642C1.49211 48.9556 1.00213 49.4455 1.00213 50.0499C0.969468 52.0751 1.31245 54.1004 2.01476 56.0113C2.81506 58.1019 4.00735 59.6535 5.54262 60.6008C7.27388 61.6624 10.0994 62.2667 13.2843 62.2667C14.7216 62.2667 16.1589 62.136 17.5798 61.8747C19.5561 61.5154 21.4507 60.8294 23.1983 59.8331C24.6355 59.0002 25.9258 57.9385 27.0201 56.6973C28.8657 54.623 29.96 52.3038 30.7603 50.2459H31.0869C33.0959 50.2459 34.3371 49.4455 35.0231 48.7596C35.4804 48.3349 35.8234 47.8123 36.0684 47.2243L36.2154 46.7997L35.8724 46.5547Z" fill="#F6F6F6"/>
<path d="M4.25227 48.2859H7.35547C7.50247 48.2859 7.63313 48.1716 7.63313 48.0082V45.2317C7.63313 45.0847 7.5188 44.954 7.35547 44.954H4.25227C4.10527 44.954 3.97461 45.0683 3.97461 45.2317V48.0082C3.99094 48.1716 4.10527 48.2859 4.25227 48.2859ZM8.53143 48.2859H11.6346C11.7816 48.2859 11.9123 48.1716 11.9123 48.0082V45.2317C11.9123 45.0847 11.798 44.954 11.6346 44.954H8.53143C8.38443 44.954 8.25377 45.0683 8.25377 45.2317V48.0082C8.27011 48.1716 8.38443 48.2859 8.53143 48.2859ZM12.8923 48.2859H15.9955C16.1425 48.2859 16.2731 48.1716 16.2731 48.0082V45.2317C16.2731 45.0847 16.1588 44.954 15.9955 44.954H12.8923C12.7453 44.954 12.6146 45.0683 12.6146 45.2317V48.0082C12.6146 48.1716 12.7289 48.2859 12.8923 48.2859ZM17.1878 48.2859H20.291C20.438 48.2859 20.5686 48.1716 20.5686 48.0082V45.2317C20.5686 45.0847 20.4543 44.954 20.291 44.954H17.1878C17.0408 44.954 16.9101 45.0683 16.9101 45.2317V48.0082C16.9101 48.1716 17.0408 48.2859 17.1878 48.2859ZM8.53143 44.317H11.6346C11.7816 44.317 11.9123 44.1864 11.9123 44.0394V41.2628C11.9123 41.1158 11.798 40.9852 11.6346 40.9852H8.53143C8.38443 40.9852 8.25377 41.0995 8.25377 41.2628V44.0394C8.27011 44.1864 8.38443 44.317 8.53143 44.317ZM12.8923 44.317H15.9955C16.1425 44.317 16.2731 44.1864 16.2731 44.0394V41.2628C16.2731 41.1158 16.1588 40.9852 15.9955 40.9852H12.8923C12.7453 40.9852 12.6146 41.0995 12.6146 41.2628V44.0394C12.6146 44.1864 12.7289 44.317 12.8923 44.317ZM17.1878 44.317H20.291C20.438 44.317 20.5686 44.1864 20.5686 44.0394V41.2628C20.5686 41.1158 20.438 40.9852 20.291 40.9852H17.1878C17.0408 40.9852 16.9101 41.0995 16.9101 41.2628V44.0394C16.9101 44.1864 17.0408 44.317 17.1878 44.317ZM17.1878 40.3319H20.291C20.438 40.3319 20.5686 40.2175 20.5686 40.0542V37.2777C20.5686 37.1307 20.438 37 20.291 37H17.1878C17.0408 37 16.9101 37.1143 16.9101 37.2777V40.0542C16.9101 40.2012 17.0408 40.3319 17.1878 40.3319ZM21.5159 48.2859H24.6191C24.7661 48.2859 24.8968 48.1716 24.8968 48.0082V45.2317C24.8968 45.0847 24.7824 44.954 24.6191 44.954H21.5159C21.3689 44.954 21.2383 45.0683 21.2383 45.2317V48.0082C21.2546 48.1716 21.3689 48.2859 21.5159 48.2859Z" fill="#F6F6F6"/>
</svg>
