<svg width="104" height="106" viewBox="0 0 104 106" fill="none" xmlns="http://www.w3.org/2000/svg">
<g filter="url(#filter0_d_149:1885)">
<path d="M52 3.64844C77.6204 3.64844 98.3516 24.3796 98.3516 50C98.3516 75.6204 77.6204 96.3516 52 96.3516C26.3796 96.3516 5.64844 75.6204 5.64844 50C5.64844 24.3796 26.3796 3.64844 52 3.64844Z" stroke="#F6F6F6" stroke-width="3"/>
<path d="M76.5133 70.3159C74.8343 75.5209 72.3158 79.3826 68.7899 82.2369C65.264 85.0912 60.5628 86.6023 54.6863 87.106L53.511 79.3826C57.3727 78.8789 60.227 78.0394 62.0739 76.6962C62.7455 76.1925 64.0887 74.6813 64.0887 74.6813L50.153 30.0199H61.7381L69.7973 63.432L78.3602 30.0199H89.6095L76.5133 70.3159ZM36.0494 28.5088C38.7358 28.5088 41.2543 28.8446 43.2691 29.6841C45.4518 30.5236 47.4666 31.6989 49.4814 33.3779L44.7802 39.7581C43.437 38.7507 42.0938 38.0791 40.9185 37.5754C39.7432 37.0717 38.2321 36.9038 36.8889 36.9038C31.1803 36.9038 28.326 41.2692 28.326 50.1679C28.326 54.7012 28.9976 57.8913 30.5087 59.7382C32.0198 61.753 34.0346 62.5925 36.8889 62.5925C38.2321 62.5925 39.5753 62.4246 40.7506 61.9209C41.9259 61.4172 43.2691 60.7456 44.9481 59.7382L49.6493 66.4542C45.7876 69.6443 41.4222 71.1554 36.3852 71.1554C32.3556 71.1554 28.9976 70.3159 25.9753 68.6369C23.121 66.9579 20.7704 64.4394 19.2593 61.2493C17.7482 58.0592 16.9087 54.3654 16.9087 50C16.9087 45.8025 17.7482 41.9408 19.2593 38.7507C20.7704 35.3927 23.121 32.8742 25.9753 31.0273C28.8297 29.5162 32.1877 28.5088 36.0494 28.5088Z" fill="#F6F6F6"/>
</g>
<defs>
<filter id="filter0_d_149:1885" x="-2" y="0" width="108" height="108" filterUnits="userSpaceOnUse" color-interpolation-filters="sRGB">
<feFlood flood-opacity="0" result="BackgroundImageFix"/>
<feColorMatrix in="SourceAlpha" type="matrix" values="0 0 0 0 0 0 0 0 0 0 0 0 0 0 0 0 0 0 127 0" result="hardAlpha"/>
<feOffset dy="4"/>
<feGaussianBlur stdDeviation="2"/>
<feComposite in2="hardAlpha" operator="out"/>
<feColorMatrix type="matrix" values="0 0 0 0 0 0 0 0 0 0 0 0 0 0 0 0 0 0 0.25 0"/>
<feBlend mode="normal" in2="BackgroundImageFix" result="effect1_dropShadow_149:1885"/>
<feBlend mode="normal" in="SourceGraphic" in2="effect1_dropShadow_149:1885" result="shape"/>
</filter>
</defs>
</svg>
