<svg width="100" height="100" viewBox="0 0 100 100" fill="none" xmlns="http://www.w3.org/2000/svg">
<path d="M35.6466 14.278V10.5148H41.1371V6.39697H31.5288V18.0357H41.1371V14.278H35.6466ZM51.014 10.5148H54.8526V6.39697H45.2433V10.5148C46.5289 11.8004 47.1993 12.4157 49.0587 14.2751C47.9717 14.2751 45.2433 14.279 45.2433 14.2788V18.0357H54.8526V14.278L51.014 10.5148ZM64.6334 10.5148H68.4718V6.39697H58.8622V10.5148C60.1477 11.8004 60.8186 12.4157 62.6779 14.2751C61.5914 14.2751 58.8622 14.279 58.8622 14.2788V18.0357H68.472V14.278L64.6334 10.5148Z" fill="#F6F6F6"/>
<path fill-rule="evenodd" clip-rule="evenodd" d="M49.9995 93.6032L75.2899 86.7935L81.1267 23.5674H18.8726L24.7087 86.7935L49.9995 93.6032ZM49.9767 44.4977L49.9769 44.4976L50.3385 44.3471L51.0321 44.0582H49.9769H31.189L30.2455 36.4229H49.9769H69.3647L69.3652 36.4228V36.4229L68.5933 44.058V44.0582H68.5929L49.9769 52.0174L49.9326 52.0363H49.9769H67.9358L65.8767 75.7138L50.0056 80.3465L49.9769 80.338V80.3467L34.0204 75.6284L32.991 63.7036H33.0185V63.7034H40.911L41.4257 69.8804L49.9051 72.0213L49.9769 72.0013V72.009L58.756 69.5374L59.3567 59.5858L49.9769 59.5559V59.5561L32.4759 59.5002V59.5001L32.4758 59.5002L31.8755 52.0363L49.9767 44.4977Z" fill="#F6F6F6"/>
</svg>
