<svg width="100" height="100" viewBox="0 0 100 100" fill="none" xmlns="http://www.w3.org/2000/svg">
<path d="M49.5999 61.6199C56.0173 61.6199 61.2197 56.4175 61.2197 50C61.2197 43.5825 56.0173 38.3801 49.5999 38.3801C43.1824 38.3801 37.98 43.5825 37.98 50C37.98 56.4175 43.1824 61.6199 49.5999 61.6199Z" fill="#F6F6F6"/>
<path d="M2.14015 37.6801C2.14015 37.8199 2 38.0998 2 38.24C2 39.4998 2.97994 40.6199 4.37996 40.6199H24.12C25.1 40.6199 25.8 40.0601 26.2201 39.2199C30.2804 30.2599 39.2404 24.2398 49.4598 24.2398C63.5998 24.2398 75.0799 35.7199 75.0799 49.8599C75.0799 63.9998 63.5998 75.4799 49.4598 75.4799C39.0998 75.4799 30.28 69.32 26.2201 60.6399C25.8 59.66 25.1 59.0998 24.1197 59.0998H4.38072C3.12047 59.0998 2.00038 60.0797 2.00038 61.4801C2.00038 61.6199 2.00038 61.8998 2.14053 62.04C7.60047 83.3198 26.7803 99 49.6004 99C76.6205 99 98.6004 77.0197 98.6004 50C98.6 22.9799 76.6197 1 49.6 1C26.7803 1 7.60009 16.6802 2.14015 37.6801Z" fill="#F6F6F6"/>
</svg>
