<svg width="100" height="100" viewBox="0 0 100 100" fill="none" xmlns="http://www.w3.org/2000/svg">
<path d="M11.6704 72.3815L50.4353 94.763L89.2022 72.3815V27.6195L50.4353 5.23866L11.6704 27.6195V72.3815ZM50.4353 99L8 74.4997V25.501L50.4353 1L92.8726 25.501V74.4997L50.4353 99Z" fill="#F6F6F6"/>
<path d="M68.449 33.4137C68.449 35.1947 68.0976 36.9637 67.3948 38.7209C66.6923 40.4773 65.7394 42.1229 64.5655 43.6063C63.388 45.1004 62.0102 46.4251 60.471 47.543C58.9241 48.6679 57.3191 49.4758 55.6555 49.9681L54.9175 48.7381C55.9079 48.2417 56.8197 47.6022 57.6238 46.8401C58.4431 46.0678 59.1525 45.1868 59.7324 44.2217C60.3162 43.2539 60.7711 42.214 61.0857 41.1285C61.4005 40.0494 61.5602 38.9311 61.5601 37.8071C61.5601 36.5185 61.3728 35.3001 60.9978 34.152C60.6232 33.0036 60.0725 32.002 59.3461 31.1466C58.6197 30.2913 57.7233 29.6179 56.6574 29.1259C55.5912 28.6336 54.3665 28.3876 52.9843 28.3876C51.2972 28.3876 49.7509 28.7158 48.3449 29.3719C46.9391 30.028 45.6737 30.9126 44.5488 32.0255C43.4242 33.1385 42.4459 34.4156 41.6141 35.8564C40.7816 37.2991 40.0874 38.8172 39.5406 40.3905C38.9949 41.9531 38.5775 43.5576 38.2928 45.1881C38.0116 46.805 37.871 48.3277 37.871 49.7573C37.871 51.2101 38.0235 52.7096 38.3279 54.2562C38.6364 55.8159 39.0834 57.3451 39.6636 58.8254C40.2435 60.3133 40.9737 61.7382 41.8428 63.078C42.7098 64.4137 43.7113 65.5854 44.8478 66.5929C45.9752 67.5947 47.2571 68.4077 48.6439 69.0005C50.038 69.5979 51.5548 69.8966 53.1952 69.8966C54.3201 69.8966 55.4155 69.7441 56.4813 69.4398C57.5459 69.1359 58.5765 68.7237 59.557 68.2098C60.5449 67.6917 61.4807 67.0797 62.3511 66.382C63.2235 65.685 64.0402 64.9212 64.7939 64.0974L65.9536 65.222C64.9225 66.5813 63.6985 67.8875 62.2809 69.1407C60.8608 70.3961 59.325 71.5142 57.6941 72.4799C56.0707 73.4448 54.3433 74.223 52.545 74.7997C50.7524 75.3739 48.9777 75.6607 47.2203 75.6607C45.5096 75.6607 43.8987 75.3623 42.3875 74.7645C40.8843 74.1718 39.48 73.3541 38.2225 72.3394C36.9573 71.3202 35.8265 70.125 34.8309 68.7545C33.8374 67.3877 32.9893 65.921 32.3003 64.3782C31.6126 62.8426 31.0826 61.2412 30.7185 59.5985C30.3555 57.9584 30.1738 56.3531 30.1738 54.7833C30.1738 52.5103 30.5544 50.173 31.316 47.7714C32.0775 45.3698 33.1261 43.0384 34.4619 40.777C35.7973 38.516 37.3731 36.3776 39.1889 34.3628C41.005 32.3478 42.9617 30.59 45.0587 29.0908C47.1556 27.5909 49.3467 26.4021 51.631 25.5235C53.9156 24.6446 56.1946 24.2053 58.4672 24.2053C59.8729 24.2053 61.1855 24.4102 62.4039 24.8203C63.6223 25.2304 64.6765 25.8219 65.567 26.5953C66.4575 27.3685 67.1604 28.3293 67.6759 29.4774C68.1914 30.6255 68.449 31.9373 68.449 33.4137Z" fill="#F6F6F6"/>
</svg>
