<svg width="100" height="100" viewBox="0 0 100 100" fill="none" xmlns="http://www.w3.org/2000/svg">
<path fill-rule="evenodd" clip-rule="evenodd" d="M69.1773 64.2221C67.1012 64.1999 65.1473 63.3894 63.6929 61.924L38.5469 36.7891V56.373C38.5469 60.4096 35.4723 63.7576 31.535 64.1777H30.387C30.2779 64.1777 30.1698 64.1841 30.0631 64.1967C26.0293 63.8728 22.8487 60.4891 22.8487 56.373V17.8491C22.8487 14.6628 24.7471 11.8207 27.6892 10.5995C28.6439 10.1998 29.6542 10 30.6867 10C32.785 10 34.7611 10.8215 36.2377 12.2981L61.3948 37.433V17.8491C61.3948 13.5193 64.9141 10 69.2328 10C73.5515 10 77.0819 13.5193 77.0819 17.8491V56.3841C77.0819 60.7028 73.5626 64.2332 69.2328 64.2332H69.1773V64.2221ZM30.0631 64.1967C29.1601 64.3033 28.3592 64.85 27.9223 65.6542L27.3783 66.6645L25.8906 69.3623V68.9515C25.8906 66.3093 23.7369 64.1555 21.0946 64.1555C18.4523 64.1555 16.2985 66.3093 16.2985 68.9515V72.6596L9.19326 65.5543C8.2829 64.644 7.08389 64.1444 5.79606 64.1444C5.16324 64.1444 4.55263 64.2665 3.96423 64.5107C2.16571 65.2657 1 67.0087 1 68.9515V84.2723C1 86.9256 3.16489 89.0683 5.80716 89.0683C8.44943 89.0683 10.6032 86.9145 10.6032 84.2723V80.5642L17.6974 87.6584C18.6077 88.5687 19.8068 89.0683 21.0946 89.0683C23.7369 89.0683 25.8906 86.9145 25.8906 84.2723V83.9392L27.4005 86.5926L27.9667 87.614C28.4663 88.4799 29.3989 89.035 30.4092 89.035H41.5667C42.6435 89.035 43.6205 88.4244 44.0868 87.4696L44.6419 86.3483L45.9519 83.7061V84.2057C45.9408 85.438 46.4404 86.6703 47.3397 87.5807C48.2278 88.5021 49.4491 89.035 50.6925 89.0572H50.748C51.9026 89.0572 53.0239 88.6242 53.9121 87.836C54.7669 88.6242 55.9215 89.1127 57.176 89.1127C58.475 89.1127 59.674 88.6131 60.5844 87.7139L67.6896 80.6086V84.3278C67.6896 86.97 69.8434 89.1238 72.4857 89.1238C73.7291 89.1238 74.8615 88.6464 75.7053 87.8804C76.5823 88.6353 77.7147 89.0683 78.8693 89.0683C80.1572 89.0683 81.3673 88.5687 82.2665 87.6695L86.5186 83.4396L90.7817 87.6917C91.6921 88.602 92.8911 89.1016 94.179 89.1016C95.4557 89.1016 96.6769 88.5909 97.5762 87.6806C99.4524 85.8043 99.4413 82.7624 97.5651 80.8862L93.3241 76.6563L97.5873 72.4153C99.4635 70.5502 99.4746 67.4972 97.5984 65.6209C96.6991 64.6995 95.489 64.1999 94.2012 64.1999C92.9244 64.1999 91.7143 64.6995 90.804 65.5987L86.5186 69.8619L82.2332 65.5987C81.3118 64.6884 80.1127 64.1999 78.836 64.1999C77.6481 64.1999 76.5268 64.6218 75.6497 65.41C75.2612 65.0547 74.806 64.7661 74.3064 64.5662C73.718 64.322 73.1074 64.1999 72.4746 64.1999C71.1978 64.1999 69.9766 64.7106 69.0774 65.6098L61.9721 72.7151V68.9959C61.9721 66.3537 59.8183 64.1999 57.176 64.1999C55.9437 64.1999 54.8113 64.6662 53.9676 65.4322C53.0683 64.6107 51.9137 64.1555 50.748 64.1555H50.6925C49.4602 64.1777 48.2389 64.7106 47.3397 65.632C46.4515 66.5313 45.9519 67.7414 45.9519 68.9626L45.1415 67.0198C45.1377 67.0123 45.1343 67.0045 45.131 66.9964C45.1272 66.987 45.1236 66.9774 45.1199 66.9676C45.1082 66.9362 45.096 66.9036 45.0749 66.8755L44.5198 65.7431C44.0535 64.7883 43.0876 64.1777 42.0107 64.1777H31.535C31.2599 64.207 30.9806 64.2221 30.6978 64.2221C30.4842 64.2221 30.2725 64.2135 30.0631 64.1967ZM79.7242 76.6341L77.2928 79.0543V74.2139L79.7242 76.6341ZM19.6846 85.6933C20.0732 86.0819 20.5839 86.2817 21.1057 86.2817C22.2159 86.2817 23.1152 85.3714 23.104 84.2612V68.9515C23.104 67.8524 22.2159 66.9532 21.1057 66.9532C20.0066 66.9532 19.1073 67.8413 19.1073 68.9515V79.4096L7.23931 67.5305C6.66201 66.9532 5.80716 66.7867 5.05222 67.0975C4.29729 67.4084 3.8088 68.1411 3.8088 68.9515V84.2723C3.8088 85.3714 4.70806 86.2706 5.80716 86.2706C6.90625 86.2706 7.80551 85.3825 7.80551 84.2723V73.8031L19.6846 85.6933ZM29.8541 68.0079L30.4092 66.9754V66.9532H42.044L42.5991 68.0856L45.1415 74.1917H41.1004L39.535 70.9721H32.8072L29.6431 76.6896L32.785 82.1962H39.1131L40.3121 79.7649L35.3939 79.7982C34.3282 79.8204 33.3512 78.8656 33.3512 77.7998C33.3512 76.7562 34.3282 75.7793 35.3939 75.8015L43.5428 75.7682H46.7735L45.3413 78.6769L42.1551 85.1049L41.6 86.2373H30.4314L29.8541 85.2159L25.5909 77.711L25.0358 76.734L25.5909 75.7571L29.8541 68.0079ZM48.7607 68.9737C48.7496 67.9191 49.6933 66.9532 50.748 66.9421C51.8138 66.9199 52.7908 67.908 52.7797 68.9737V74.2139H48.7607V68.9737ZM55.1888 84.3167C55.1888 85.4158 56.0769 86.315 57.1871 86.315C57.72 86.315 58.2307 86.1041 58.6082 85.7266L70.4984 73.8364V84.3167C70.4984 85.4158 71.3866 86.315 72.4968 86.315C73.5959 86.315 74.4951 85.4269 74.4951 84.3167V69.007C74.4951 68.1966 74.0066 67.4639 73.2517 67.153C72.4968 66.8422 71.6419 67.0087 71.0646 67.586L59.1855 79.4651V68.9959C59.1855 67.8969 58.2973 66.9976 57.1871 66.9976C56.088 66.9976 55.1888 67.8857 55.1888 68.9959V84.3167ZM95.6222 70.4059L89.3829 76.6341L95.6 82.8401C96.3993 83.6284 96.3993 84.894 95.6111 85.6822C95.2225 86.0708 94.7007 86.2706 94.1901 86.2706C93.6572 86.2706 93.1465 86.0597 92.769 85.6822L86.5297 79.4651L80.2904 85.6822C79.8907 86.0708 79.38 86.2706 78.8693 86.2706C78.3364 86.2817 77.8257 86.0597 77.4483 85.6822C76.6711 84.894 76.6711 83.6284 77.4594 82.8401L83.6876 76.6341L77.4483 70.4059C76.66 69.6177 76.66 68.352 77.4483 67.5638C78.2365 66.7644 79.5021 66.7644 80.2904 67.5527L86.5408 73.792L92.7912 67.5527C93.5794 66.7755 94.8451 66.7756 95.6333 67.5638C96.4104 68.352 96.4104 69.6177 95.6222 70.4059ZM48.7607 84.2279C48.7496 85.2826 49.6933 86.2484 50.748 86.2595C51.8138 86.2706 52.7908 85.2937 52.7797 84.2279V75.8237H48.7607V84.2279ZM65.658 59.9478C66.6238 60.9137 67.9228 61.4244 69.2328 61.4244C72.0305 61.4244 74.2842 59.1707 74.2842 56.3841V17.8491C74.2842 15.0625 72.0305 12.7977 69.2328 12.7977C66.4462 12.7977 64.1814 15.0514 64.1814 17.8491V44.183L34.2837 14.2743C32.8405 12.8199 30.6645 12.3869 28.7772 13.1752C26.8898 13.9634 25.6575 15.7952 25.6575 17.8491V56.373C25.6575 59.1596 27.9223 61.4244 30.7089 61.4244C33.4955 61.4244 35.7603 59.1707 35.7603 56.373V30.0391L65.658 59.9478Z" fill="#F6F6F6"/>
</svg>
