<svg width="98" height="88" viewBox="0 0 98 88" fill="none" xmlns="http://www.w3.org/2000/svg">
<path d="M98 43.6466C98 37.1545 89.87 31.002 77.4052 27.1867C80.2817 14.4823 79.0033 4.3746 73.3702 1.13861C72.0718 0.37953 70.5536 0.01998 68.8956 0.01998V4.4745C69.8145 4.4745 70.5536 4.6543 71.1729 4.9939C73.8895 6.552 75.0681 12.4847 74.1492 20.1154C73.9295 21.9931 73.5699 23.9706 73.1305 25.9882C69.2152 25.0294 64.9405 24.2903 60.446 23.8108C57.7493 20.1154 54.9527 16.7595 52.1362 13.8231C58.6482 7.7705 64.7607 4.4545 68.9156 4.4545V0C63.4223 0 56.2311 3.91521 48.9601 10.7069C41.689 3.95516 34.4978 0.0798998 29.0045 0.0798998V4.5344C33.1394 4.5344 39.2719 7.8304 45.7839 13.843C42.9874 16.7795 40.1908 20.1154 37.534 23.8108C33.0196 24.2903 28.7448 25.0294 24.8296 26.0082C24.3702 24.0106 24.0306 22.073 23.7909 20.2152C22.852 12.5846 24.0106 6.6519 26.7073 5.0738C27.3066 4.7142 28.0856 4.5544 29.0045 4.5544V0.0998802C27.3265 0.0998802 25.8084 0.45944 24.49 1.21851C18.8769 4.4545 17.6184 14.5422 20.5149 27.2067C8.09009 31.042 0 37.1745 0 43.6466C0 50.1386 8.13004 56.2911 20.5948 60.1064C17.7183 72.8108 18.9967 82.9185 24.6298 86.1545C25.9283 86.9136 27.4464 87.2731 29.1243 87.2731C34.6176 87.2731 41.8088 83.3579 49.0799 76.5662C56.351 83.318 63.5422 87.1932 69.0355 87.1932C70.7134 87.1932 72.2316 86.8337 73.5499 86.0746C79.1631 82.8386 80.4215 72.7509 77.5251 60.0864C89.9099 56.2711 98 50.1186 98 43.6466ZM71.9918 30.3229C71.2527 32.8997 70.3339 35.5565 69.2951 38.2132C68.4761 36.6152 67.6172 35.0171 66.6784 33.4191C65.7595 31.821 64.7807 30.2629 63.8019 28.7448C66.6384 29.1643 69.375 29.6837 71.9918 30.3229ZM62.843 51.5968C61.285 54.2935 59.6869 56.8504 58.0289 59.2275C55.0526 59.4872 52.0363 59.627 49 59.627C45.9837 59.627 42.9674 59.4872 40.011 59.2475C38.353 56.8704 36.735 54.3335 35.1769 51.6567C33.6588 49.04 32.2805 46.3832 31.022 43.7065C32.2605 41.0298 33.6588 38.353 35.157 35.7362C36.715 33.0395 38.3131 30.4827 39.9711 28.1056C42.9474 27.8459 45.9637 27.7061 49 27.7061C52.0163 27.7061 55.0326 27.8459 57.989 28.0856C59.647 30.4627 61.265 32.9996 62.8231 35.6763C64.3412 38.2931 65.7195 40.9499 66.978 43.6266C65.7195 46.3033 64.3412 48.98 62.843 51.5968ZM69.2951 49C70.3738 51.6767 71.2927 54.3534 72.0518 56.9503C69.435 57.5895 66.6784 58.1288 63.8219 58.5483C64.8007 57.0102 65.7795 55.4321 66.6983 53.8141C67.6172 52.2161 68.4761 50.598 69.2951 49ZM49.04 70.3139C47.1822 68.3962 45.3245 66.2589 43.4868 63.9217C45.2846 64.0016 47.1223 64.0616 48.98 64.0616C50.8577 64.0616 52.7155 64.0216 54.5332 63.9217C52.7354 66.2589 50.8777 68.3962 49.04 70.3139ZM34.1781 58.5483C31.3416 58.1288 28.605 57.6095 25.9882 56.9702C26.7273 54.3934 27.6461 51.7367 28.6849 49.0799C29.5039 50.6779 30.3628 52.276 31.3017 53.874C32.2405 55.4721 33.1993 57.0302 34.1781 58.5483ZM48.9401 16.9792C50.7978 18.8969 52.6555 21.0342 54.4933 23.3714C52.6955 23.2915 50.8577 23.2316 49 23.2316C47.1223 23.2316 45.2646 23.2715 43.4468 23.3714C45.2446 21.0342 47.1023 18.8969 48.9401 16.9792ZM34.1582 28.7448C33.1794 30.2829 32.2006 31.861 31.2817 33.479C30.3628 35.077 29.5039 36.6751 28.6849 38.2731C27.6062 35.5964 26.6873 32.9197 25.9283 30.3229C28.545 29.7036 31.3017 29.1643 34.1582 28.7448ZM16.0803 53.7542C9.009 50.7379 4.43457 46.7827 4.43457 43.6466C4.43457 40.5104 9.009 36.5353 16.0803 33.5389C17.7982 32.7998 19.6759 32.1406 21.6135 31.5214C22.7521 35.4366 24.2503 39.5116 26.108 43.6865C24.2703 47.8414 22.7921 51.8965 21.6735 55.7917C19.6959 55.1724 17.8182 54.4933 16.0803 53.7542ZM26.8272 82.2992C24.1105 80.7411 22.9319 74.8084 23.8508 67.1777C24.0705 65.3 24.4301 63.3225 24.8696 61.3049C28.7848 62.2638 33.0595 63.0029 37.554 63.4823C40.2507 67.1777 43.0473 70.5336 45.8638 73.47C39.3518 79.5226 33.2393 82.8386 29.0844 82.8386C28.1855 82.8186 27.4264 82.6388 26.8272 82.2992ZM74.2091 67.0779C75.148 74.7085 73.9894 80.6413 71.2927 82.2193C70.6934 82.5789 69.9144 82.7387 68.9955 82.7387C64.8606 82.7387 58.7281 79.4427 52.2161 73.4301C55.0126 70.4937 57.8092 67.1578 60.466 63.4623C64.9804 62.9829 69.2552 62.2438 73.1704 61.265C73.6298 63.2825 73.9894 65.2201 74.2091 67.0779ZM81.8997 53.7542C80.1818 54.4933 78.3041 55.1525 76.3665 55.7717C75.2279 51.8565 73.7297 47.7815 71.872 43.6066C73.7097 39.4517 75.1879 35.3967 76.3066 31.5014C78.2841 32.1207 80.1618 32.7998 81.9197 33.5389C88.991 36.5552 93.5654 40.5104 93.5654 43.6466C93.5455 46.7827 88.9711 50.7578 81.8997 53.7542Z" fill="#F6F6F6"/>
</svg>
