<svg width="100" height="100" viewBox="0 0 100 100" fill="none" xmlns="http://www.w3.org/2000/svg">
<path d="M39.9918 46.6644C40.1226 46.8305 40.2044 47.0335 40.188 47.255V58.5516C40.188 58.7915 40.1063 59.0315 39.9591 59.1976C39.8119 59.3822 39.5993 59.4745 39.3867 59.456C39.2723 59.456 39.1414 59.4376 39.027 59.4006C38.9289 59.3637 38.8307 59.2899 38.749 59.1976L32.2896 49.6731V58.6623C32.2896 58.8838 32.2242 59.0869 32.077 59.253C31.9462 59.4006 31.75 59.4929 31.5538 59.4929C31.3575 59.4929 31.1776 59.4191 31.0468 59.253C30.916 59.0869 30.8506 58.8838 30.8506 58.6623V47.3289C30.8506 47.0889 30.9324 46.849 31.0795 46.6828C31.2267 46.5167 31.4229 46.4244 31.6355 46.4244C31.7663 46.4244 31.8972 46.4429 32.0116 46.4983C32.1261 46.5536 32.2242 46.6275 32.2896 46.7382L38.749 56.2996V47.255C38.749 47.0335 38.8144 46.8305 38.9616 46.6644C39.0924 46.5167 39.2886 46.4244 39.4848 46.4244C39.6647 46.4244 39.861 46.5167 39.9918 46.6644ZM53.3193 46.6644C53.4665 46.849 53.5319 47.0705 53.5319 47.3104V54.4538C53.5482 55.3767 53.352 56.2996 52.9595 57.0933C52.5834 57.8501 52.0438 58.4962 51.3733 58.9207C50.6701 59.3637 49.8852 59.6037 49.0839 59.5852C48.2826 59.6037 47.4814 59.3637 46.7782 58.9207C46.1077 58.4962 45.5517 57.8501 45.1756 57.0933C44.7831 56.2812 44.5869 55.3767 44.6033 54.4538V47.3104C44.6033 47.0705 44.685 46.8305 44.8322 46.6644C44.9957 46.4983 45.2083 46.3875 45.4209 46.406C45.6335 46.406 45.8297 46.4983 45.9769 46.6644C46.1241 46.8305 46.2222 47.052 46.2058 47.292V54.4353C46.1895 55.0445 46.3367 55.6536 46.5983 56.1704C47.1052 57.1856 48.0537 57.7948 49.0676 57.7948C49.5745 57.7948 50.0814 57.6471 50.5393 57.3702C50.9972 57.0933 51.3733 56.6688 51.635 56.1704C51.913 55.6351 52.0438 55.0445 52.0438 54.4353V47.292C52.0438 47.052 52.1092 46.8305 52.24 46.6459C52.3708 46.4798 52.5834 46.369 52.7797 46.3875C52.9759 46.3875 53.1885 46.4983 53.3193 46.6644ZM66.0254 58.127C66.1235 58.2747 66.1726 58.4593 66.1726 58.6623C66.1889 58.9023 66.0908 59.1422 65.9436 59.2899C65.7965 59.4376 65.6002 59.5299 65.404 59.5299C65.1423 59.5483 64.8971 59.4006 64.7662 59.1607L61.5611 54.3246L58.4214 59.1422C58.2742 59.3822 58.0452 59.5299 57.7836 59.5299C57.5874 59.5299 57.4075 59.456 57.2767 59.2899C57.1458 59.1607 57.0641 58.9576 57.0641 58.7546C57.0641 58.5331 57.1458 58.3116 57.2603 58.1455L60.6453 52.9402L57.244 47.7719C57.1458 47.6242 57.0804 47.4396 57.0804 47.2366C57.0804 46.9966 57.1622 46.7751 57.3094 46.609C57.4565 46.4429 57.6528 46.3506 57.8654 46.3506C57.9962 46.3506 58.1107 46.3875 58.2251 46.4429C58.3396 46.4983 58.4377 46.609 58.5195 46.7198L61.6919 51.5189L64.8316 46.7567C64.9625 46.5167 65.2078 46.369 65.453 46.3506C65.6493 46.3506 65.8455 46.4429 65.9763 46.609C66.1235 46.7567 66.2053 46.9597 66.2053 47.1812C66.2053 47.3658 66.1399 47.5504 66.0417 47.7165L62.5913 52.8848C62.5913 52.9402 66.0254 58.127 66.0254 58.127ZM77.9302 46.6644C78.0774 46.8305 78.1755 47.052 78.1592 47.292C78.1592 47.5319 78.0774 47.7534 77.9302 47.9011C77.7667 48.0488 77.5705 48.141 77.3579 48.1226H74.4144V58.57C74.4144 58.81 74.3326 59.0315 74.1854 59.1976C73.842 59.5483 73.3187 59.5483 72.9753 59.1976C72.8281 59.0315 72.73 58.81 72.7464 58.57V48.1226H69.8192C69.6067 48.1226 69.4104 48.0488 69.2469 47.9011C69.0997 47.735 69.018 47.5135 69.018 47.2735C69.018 47.052 69.0997 46.8305 69.2469 46.6644C69.4104 46.5167 69.6067 46.4244 69.8192 46.4429H77.3579C77.5705 46.4244 77.7667 46.4983 77.9302 46.6644Z" fill="#F6F6F6"/>
<path d="M81.567 59.028C81.029 58.6753 80.5888 58.1927 80.279 57.58C80.1812 57.4315 80.1323 57.2645 80.1323 57.0788C80.1323 56.8375 80.2301 56.6147 80.3768 56.4662C80.5073 56.2991 80.6866 56.2063 80.8823 56.2063C81.1757 56.2434 81.4529 56.4105 81.6159 56.6704C81.9746 57.3573 82.6431 57.7657 83.3442 57.7657C83.9148 57.7842 84.4691 57.5244 84.8767 57.0788C85.2843 56.6333 85.5126 56.0207 85.4963 55.3709V47.1657C85.4963 46.9244 85.5778 46.683 85.7409 46.5345C85.8876 46.3674 86.0995 46.2746 86.3115 46.2746C86.5234 46.2561 86.7354 46.3489 86.8984 46.5345C87.0452 46.7016 87.1267 46.9429 87.1267 47.1843V55.4081C87.1267 56.1506 86.9637 56.8746 86.6376 57.5058C86.3115 58.137 85.8387 58.6568 85.2843 59.028C84.6974 59.3993 84.0289 59.6035 83.3442 59.5849C82.7246 59.5478 82.1214 59.3807 81.567 59.028ZM92.882 59.158C92.2298 58.8795 91.6266 58.4525 91.1212 57.9142C90.9092 57.7286 90.7788 57.4501 90.7788 57.1531C90.7788 56.9303 90.8603 56.7075 91.007 56.5405C91.1538 56.3734 91.3494 56.2806 91.5451 56.2806C91.7244 56.2806 91.8875 56.3548 92.0179 56.4848C92.4092 56.9117 92.8657 57.2645 93.3711 57.5058C93.8765 57.7286 94.4146 57.8399 94.9526 57.8399C95.5722 57.8585 96.1754 57.6729 96.6971 57.3016C97.1373 57.0231 97.3982 56.5033 97.4145 55.9279C97.4308 55.3152 97.1536 54.7398 96.6971 54.4242C96.045 53.9786 95.3113 53.6816 94.5613 53.5331C93.4363 53.2732 92.5559 52.8462 91.9527 52.2336C91.3494 51.6396 91.0396 50.8042 91.0396 49.7461C91.0233 49.0406 91.2027 48.3723 91.5614 47.7969C91.9201 47.2214 92.4092 46.7758 92.9635 46.516C93.6157 46.2004 94.3004 46.0519 95.0015 46.0704C95.6537 46.0704 96.3058 46.2004 96.9254 46.4417C97.4634 46.6459 97.9688 46.9986 98.3928 47.4442C98.621 47.6298 98.7514 47.9268 98.7677 48.2424C98.7677 48.4652 98.6862 48.6879 98.5395 48.8364C98.4091 49.0035 98.2134 49.1149 98.0015 49.0963C97.871 49.0963 97.7243 49.0406 97.6265 48.9478C97.2841 48.5765 96.8765 48.2981 96.4363 48.131C95.9798 47.9268 95.4906 47.8154 95.0015 47.7969C94.382 47.7597 93.7787 47.9454 93.257 48.3167C92.8494 48.6322 92.6048 49.1335 92.6048 49.6904C92.6048 50.2473 92.8494 50.7671 93.257 51.0641C93.8602 51.454 94.5124 51.7324 95.1972 51.8809C95.9145 52.048 96.6319 52.2893 97.3004 52.6235C97.8058 52.8834 98.246 53.2918 98.5558 53.8301C98.8656 54.4427 99.0286 55.1296 98.996 55.835C99.0123 56.5219 98.8167 57.2088 98.458 57.7657C98.083 58.3412 97.5776 58.8053 97.0069 59.0837C96.3711 59.3993 95.6863 59.5664 94.9852 59.5478C94.2841 59.5664 93.5668 59.4364 92.882 59.158Z" fill="#F6F6F6"/>
<path d="M7.84938 59.2585C7.83303 59.2216 7.81667 59.1847 7.80031 59.1478C7.70217 58.9081 7.68582 58.6499 7.71853 58.4101H2.40256L10.3193 42.6967L12.92 47.8423L13.6724 46.33L11.4152 41.8299C11.3497 41.7008 10.9735 41 10.3029 41C10.0085 41 9.58321 41.1475 9.22336 41.8299L1.20851 57.7277C1.14308 57.8568 0.815949 58.5945 1.14308 59.2216C1.29029 59.5167 1.61743 59.8671 2.32078 59.8671H9.04343C8.32373 59.8855 7.99659 59.5536 7.84938 59.2585Z" fill="#F6F6F6"/>
<path d="M23.2917 57.7299L16.7101 44.6452C16.6448 44.5162 16.2691 43.8159 15.5995 43.8159C15.3056 43.8159 14.8809 43.9634 14.5217 44.6452L13.6724 46.3223L14.4237 47.8335L15.5995 45.493L22.0995 58.3749H19.6171C19.6498 58.5961 19.6334 58.7988 19.5681 59.0015C19.5518 59.0384 19.5355 59.0936 19.5191 59.1305L19.5028 59.1858C19.1762 59.8308 18.4576 59.8677 18.3106 59.8677H22.1812C22.3282 59.8677 23.0468 59.8308 23.3734 59.1858C23.5367 58.9093 23.651 58.4118 23.2917 57.7299Z" fill="#F6F6F6"/>
<path d="M19.4567 59.1874L19.4729 59.1322C19.4891 59.0954 19.5053 59.0402 19.5215 59.0035C19.5863 58.8012 19.6025 58.5805 19.5701 58.3782C19.5377 58.1575 19.4567 57.9368 19.3595 57.7345L14.4176 47.8586L13.6561 46.3506L12.9107 47.8586L7.96887 57.7345C7.87165 57.9368 7.80684 58.1575 7.77443 58.3782C7.74203 58.6356 7.75823 58.8931 7.83924 59.1138C7.85545 59.1506 7.87165 59.1874 7.88785 59.2241C8.03368 59.5184 8.35774 59.8678 9.05446 59.8678H18.2577C18.4197 59.8494 19.1327 59.8127 19.4567 59.1874ZM13.6723 49.3483L18.1929 58.3782H9.15168L13.6723 49.3483Z" fill="#F6F6F6"/>
</svg>
