<svg width="100" height="100" viewBox="0 0 100 100" fill="none" xmlns="http://www.w3.org/2000/svg">
<path d="M49.3962 79.9204C49.0645 79.9204 48.7548 79.8319 48.4672 79.6771L45.5255 77.9298C45.083 77.6864 45.3042 77.598 45.4371 77.5537C46.0342 77.3547 46.1448 77.3103 46.7641 76.9566C46.8305 76.9122 46.9191 76.9344 46.9853 76.9786L49.2415 78.3279C49.3299 78.3721 49.4406 78.3721 49.5068 78.3279L58.3323 73.2184C58.4207 73.1742 58.4651 73.0856 58.4651 72.9751V62.7784C58.4651 62.6676 58.4207 62.5793 58.3323 62.5349L49.5068 57.4476C49.4184 57.4032 49.3077 57.4032 49.2415 57.4476L40.416 62.5349C40.3276 62.5791 40.2832 62.6898 40.2832 62.7782V72.975C40.2832 73.0636 40.3276 73.174 40.416 73.2184L42.827 74.6118C44.132 75.2754 44.9504 74.5012 44.9504 73.7271V63.6629C44.9504 63.5303 45.061 63.3975 45.2158 63.3975H46.3438C46.4766 63.3975 46.6093 63.5081 46.6093 63.6629V73.7271C46.6093 75.4744 45.6581 76.492 43.9992 76.492C43.4905 76.492 43.0925 76.492 41.9643 75.9389L39.6419 74.6118C39.0668 74.2802 38.7129 73.6607 38.7129 72.9972V62.8004C38.7129 62.1369 39.0668 61.5174 39.6419 61.1857L48.4672 56.0762C49.0203 55.7666 49.7724 55.7666 50.3253 56.0762L59.1506 61.1857C59.7257 61.5174 60.0798 62.1369 60.0798 62.8004V72.9972C60.0798 73.6607 59.7257 74.2802 59.1506 74.6118L50.3253 79.7213C50.0377 79.8541 49.706 79.9204 49.3963 79.9204H49.3962ZM52.1168 72.9087C48.2461 72.9087 47.4498 71.1392 47.4498 69.6352C47.4498 69.5023 47.5604 69.3697 47.7153 69.3697H48.8655C48.9981 69.3697 49.1087 69.4581 49.1087 69.591C49.2857 70.7632 49.7944 71.3383 52.139 71.3383C53.9969 71.3383 54.7935 70.918 54.7935 69.9226C54.7935 69.3475 54.5721 68.9274 51.6745 68.6398C49.2635 68.3964 47.7595 67.8657 47.7595 65.9413C47.7595 64.1496 49.2637 63.0878 51.7852 63.0878C54.6163 63.0878 56.0099 64.0612 56.1869 66.1844C56.1869 66.251 56.1647 66.3172 56.1205 66.3836C56.0761 66.4278 56.0099 66.472 55.9435 66.472H54.7933C54.6827 66.472 54.5721 66.3836 54.55 66.273C54.2846 65.0566 53.5989 64.6583 51.7852 64.6583C49.7502 64.6583 49.5068 65.3662 49.5068 65.8969C49.5068 66.5384 49.7944 66.7375 52.5371 67.0913C55.2578 67.4454 56.5408 67.9541 56.5408 69.8562C56.5186 71.8027 54.9261 72.9087 52.1168 72.9087Z" fill="#F6F6F6"/>
<path d="M22.013 40.0399C22.013 39.6419 21.7918 39.2656 21.4379 39.0666L12.0595 33.6696C11.9045 33.581 11.7277 33.5368 11.5508 33.5146H11.4622C11.2854 33.5146 11.1084 33.581 10.9535 33.6696L1.5751 39.0666C1.22104 39.2656 1 39.6417 1 40.0399L1.0222 54.5498C1.0222 54.7489 1.13282 54.9479 1.30965 55.0365C1.48668 55.1471 1.70773 55.1471 1.86274 55.0365L7.43671 51.8514C7.79057 51.6523 8.01181 51.2763 8.01181 50.8782V44.0876C8.01181 43.6896 8.23286 43.3135 8.58691 43.1145L10.9535 41.743C11.1306 41.6324 11.3296 41.588 11.5286 41.588C11.7277 41.588 11.9267 41.6324 12.0817 41.743L14.4483 43.1145C14.8024 43.3135 15.0234 43.6894 15.0234 44.0876V50.8782C15.0234 51.2763 15.2447 51.6523 15.5985 51.8514L21.1725 55.0365C21.3495 55.1471 21.5706 55.1471 21.7476 55.0365C21.9246 54.9479 22.0352 54.7489 22.0352 54.5498L22.013 40.0399ZM67.0915 20.0665C66.9146 19.9778 66.6934 19.9778 66.5384 20.0665C66.3615 20.1771 66.2509 20.3539 66.2509 20.5529V34.9304C66.2509 35.0631 66.1847 35.1957 66.0519 35.2843C65.9193 35.3505 65.7864 35.3505 65.6538 35.2843L63.3092 33.9351C63.1373 33.8372 62.9429 33.7857 62.7451 33.7857C62.5473 33.7857 62.3529 33.8372 62.181 33.9351L52.8026 39.3542C52.4487 39.5532 52.2275 39.9293 52.2275 40.3274V51.1435C52.2275 51.5415 52.4487 51.9178 52.8026 52.1168L62.181 57.536C62.3529 57.6338 62.5473 57.6853 62.7451 57.6853C62.9429 57.6853 63.1373 57.6338 63.3092 57.536L72.6876 52.1168C73.0415 51.9178 73.2627 51.5417 73.2627 51.1435V24.1806C73.2627 23.7603 73.0415 23.3844 72.6876 23.1852L67.0916 20.0665H67.0915ZM66.2289 47.5824C66.2289 47.6931 66.1847 47.7815 66.0961 47.8257L62.8889 49.6836C62.8441 49.7055 62.7949 49.7168 62.7451 49.7168C62.6953 49.7168 62.6461 49.7055 62.6013 49.6836L59.3941 47.8257C59.3055 47.7815 59.2613 47.6709 59.2613 47.5824V43.8664C59.2613 43.7558 59.3055 43.6674 59.3941 43.6231L62.6013 41.765C62.6461 41.7432 62.6953 41.7318 62.7451 41.7318C62.7949 41.7318 62.8441 41.7432 62.8889 41.765L66.0961 43.6231C66.1847 43.6672 66.2289 43.778 66.2289 43.8664V47.5824ZM98.3013 43.778C98.6553 43.5789 98.8544 43.2029 98.8544 42.8046V40.1726C98.8544 39.7745 98.6331 39.3984 98.3013 39.1994L88.9893 33.8024C88.8174 33.7046 88.623 33.6532 88.4253 33.6532C88.2275 33.6532 88.0331 33.7046 87.8613 33.8024L78.4828 39.2214C78.1288 39.4204 77.9077 39.7965 77.9077 40.1948V51.0108C77.9077 51.4089 78.1288 51.785 78.4828 51.984L87.7948 57.2925C88.1489 57.4916 88.569 57.4916 88.9008 57.2925L94.541 54.152C94.718 54.0634 94.8287 53.8643 94.8287 53.6653C94.8287 53.4662 94.718 53.2672 94.541 53.1786L85.1184 47.7595C84.9416 47.649 84.8309 47.472 84.8309 47.273V43.8888C84.8309 43.6897 84.9416 43.4907 85.1184 43.4021L88.0603 41.721C88.1464 41.6668 88.2461 41.6381 88.3478 41.6381C88.4496 41.6381 88.5493 41.6668 88.6354 41.721L91.5771 43.4021C91.7541 43.5127 91.8647 43.6896 91.8647 43.8888V46.543C91.8647 46.7421 91.9754 46.9411 92.1522 47.0295C92.3292 47.1402 92.5503 47.1402 92.7273 47.0295L98.3013 43.778Z" fill="#F6F6F6"/>
<path d="M88.2817 43.2692C88.3145 43.2476 88.353 43.2361 88.3922 43.2361C88.4315 43.2361 88.4699 43.2476 88.5028 43.2692L90.2945 44.3088C90.3609 44.3528 90.4051 44.4192 90.4051 44.5078V46.587C90.4051 46.6754 90.3609 46.7418 90.2945 46.786L88.5028 47.8256C88.4699 47.8472 88.4315 47.8587 88.3922 47.8587C88.353 47.8587 88.3145 47.8472 88.2817 47.8256L86.49 46.786C86.4236 46.7418 86.3794 46.6754 86.3794 46.587V44.5078C86.3794 44.4192 86.4236 44.3528 86.49 44.3088L88.2817 43.2692Z" fill="#F6F6F6"/>
<mask id="mask0_149:1848" style="mask-type:alpha" maskUnits="userSpaceOnUse" x="26" y="33" width="22" height="25">
<path d="M37.6953 33.8468C37.5234 33.7489 37.329 33.6975 37.1313 33.6975C36.9335 33.6975 36.7391 33.7489 36.5673 33.8468L27.2552 39.2213C26.9012 39.4204 26.7021 39.7964 26.7021 40.1945V50.9666C26.7021 51.3647 26.9234 51.7407 27.2552 51.9398L36.5673 57.3147C36.7391 57.4126 36.9335 57.464 37.1313 57.464C37.329 57.464 37.5234 57.4126 37.6953 57.3147L47.0075 51.9398C47.3613 51.7407 47.5606 51.3647 47.5606 50.9666V40.1947C47.5606 39.7966 47.3391 39.4206 47.0075 39.2215L37.6953 33.8468Z" fill="white"/>
</mask>
<g mask="url(#mask0_149:1848)">
<path d="M37.6953 33.8468C37.5234 33.7489 37.329 33.6975 37.1313 33.6975C36.9335 33.6975 36.7391 33.7489 36.5673 33.8468L27.2552 39.2213C26.9012 39.4204 26.7021 39.7964 26.7021 40.1945V50.9666C26.7021 51.3647 26.9234 51.7407 27.2552 51.9398L36.5673 57.3147C36.7391 57.4126 36.9335 57.464 37.1313 57.464C37.329 57.464 37.5234 57.4126 37.6953 57.3147L47.0075 51.9398C47.3613 51.7407 47.5606 51.3647 47.5606 50.9666V40.1947C47.5606 39.7966 47.3391 39.4206 47.0075 39.2215L37.6953 33.8468Z" fill="#F6F6F6"/>
<path d="M47.0297 39.2217L37.6735 33.8469C37.5815 33.8005 37.4852 33.7634 37.3858 33.7363L26.9014 51.697C26.9883 51.8031 27.0932 51.8929 27.2113 51.9625L36.5675 57.3374C36.8329 57.4923 37.1426 57.5365 37.43 57.4479L47.2731 39.4431C47.2067 39.3547 47.1181 39.2881 47.0297 39.2218V39.2217Z" fill="#E87630" fill-opacity="0.25"/>
<path fill-rule="evenodd" clip-rule="evenodd" d="M47.0519 51.9399C47.3174 51.7851 47.5164 51.5197 47.605 51.2322L37.3415 33.714C37.0761 33.6697 36.7884 33.6918 36.5454 33.8466L27.2554 39.1995L37.2751 57.4697C37.4208 57.4458 37.5624 57.4012 37.6954 57.3371L47.0517 51.9401L47.0519 51.9399Z" fill="#F6F6F6"/>
<path fill-rule="evenodd" clip-rule="evenodd" d="M47.0518 51.9401L37.7177 57.315C37.5859 57.3822 37.4439 57.427 37.2974 57.4476L37.4744 57.7795L47.826 51.7855V51.6526L47.5605 51.2102C47.5163 51.5198 47.3173 51.7853 47.0518 51.9401Z" fill="url(#paint0_linear_149:1848)"/>
<path fill-rule="evenodd" clip-rule="evenodd" d="M47.0518 51.9401L37.7177 57.315C37.5859 57.3822 37.4439 57.427 37.2974 57.4476L37.4744 57.7795L47.826 51.7855V51.6526L47.5605 51.2102C47.5163 51.5198 47.3173 51.7853 47.0518 51.9401Z" fill="url(#paint1_linear_149:1848)"/>
</g>
<defs>
<linearGradient id="paint0_linear_149:1848" x1="26.3624" y1="54.5129" x2="47.9099" y2="54.5129" gradientUnits="userSpaceOnUse">
<stop offset="0.09192" stop-color="#6CC04A"/>
<stop offset="0.2864" stop-color="#66B848"/>
<stop offset="0.5968" stop-color="#54A044"/>
<stop offset="0.8624" stop-color="#41873F"/>
</linearGradient>
<linearGradient id="paint1_linear_149:1848" x1="51.0491" y1="37.3444" x2="45.5902" y2="65.9486" gradientUnits="userSpaceOnUse">
<stop stop-color="#41873F"/>
<stop offset="0.3288" stop-color="#418B3D"/>
<stop offset="0.6352" stop-color="#419637"/>
<stop offset="0.9319" stop-color="#3FA92D"/>
<stop offset="1" stop-color="#3FAE2A"/>
</linearGradient>
</defs>
</svg>
