<svg width="100" height="100" viewBox="0 0 100 100" fill="none" xmlns="http://www.w3.org/2000/svg">
<path fill-rule="evenodd" clip-rule="evenodd" d="M92.2458 47.5341C92.1578 47.5517 92.0693 47.746 92.0693 47.8518C92.0517 48.5585 92.0341 50.4308 92.0341 51.7025C92.0341 51.738 92.087 51.8086 92.14 51.8086C92.4049 51.8262 93.0407 51.8438 93.5883 51.8438C94.3478 51.8438 94.7894 51.738 95.0369 51.6321C95.6726 51.314 95.9729 50.6251 95.9729 49.8654C95.9729 48.1523 94.7718 47.4987 92.9877 47.4987C92.8641 47.4811 92.5111 47.4811 92.2458 47.5341ZM96.8032 55.4296C96.8032 53.6809 95.5137 52.7093 93.1822 52.7093C93.0761 52.7093 92.3342 52.6917 92.1576 52.727C92.1046 52.7448 92.0341 52.7802 92.0341 52.8332C92.0341 54.0871 92.0163 56.0833 92.0693 56.8604C92.1046 57.1959 92.352 57.6729 92.6524 57.8141C92.9701 57.9908 93.6944 58.026 94.189 58.026C95.5843 58.026 96.8032 57.2489 96.8032 55.4296ZM88.6428 46.5627C88.8193 46.5627 89.3491 46.6155 90.7092 46.6155C91.9987 46.6155 93.0231 46.5803 94.2772 46.5803C95.8138 46.5803 97.9334 47.1277 97.9334 49.424C97.9334 50.5545 97.1385 51.4554 96.0965 51.897C96.0437 51.9146 96.0437 51.9498 96.0965 51.9675C97.5801 52.3386 98.8874 53.257 98.8874 54.9878C98.8874 56.6837 97.8276 57.7611 96.2908 58.4324C95.3546 58.8386 94.189 58.9798 93.0055 58.9798C92.1046 58.9798 89.6848 58.874 88.3425 58.9094C88.2012 58.8562 88.4661 58.2203 88.5896 58.1145C88.9077 58.0967 89.1548 58.0791 89.4905 57.973C89.9675 57.8496 90.0203 57.7081 90.091 56.984C90.1264 56.3658 90.1264 54.1753 90.1264 52.6211C90.1264 50.4839 90.1442 49.0355 90.1264 48.329C90.1088 47.7816 89.9145 47.6047 89.5259 47.4987C89.2254 47.4459 88.731 47.375 88.3247 47.3222C88.2362 47.2338 88.5366 46.6332 88.6428 46.5627ZM78.4508 57.5492C78.875 57.8846 79.7051 58.0258 80.447 58.0258C81.4008 58.0258 82.3545 57.8496 83.2731 57.019C84.2093 56.1715 84.8627 54.8644 84.8627 52.7802C84.8627 50.784 84.1032 49.1589 82.5488 48.2054C81.6657 47.6576 80.5352 47.4283 79.2281 47.4283C78.8396 47.4283 78.4686 47.4459 78.2391 47.5517C78.1859 47.5871 78.0625 47.746 78.0625 47.8342C78.027 48.1876 78.027 50.9076 78.027 52.4975C78.027 54.1401 78.027 56.4364 78.0625 56.7013C78.0625 56.9664 78.1859 57.3726 78.451 57.5492H78.4508ZM74.4412 46.5625C74.777 46.5625 76.0663 46.6155 76.6845 46.6155C77.7975 46.6155 78.5923 46.5627 80.6941 46.5627C82.4604 46.5627 83.9442 47.0395 85.004 47.9403C86.2933 49.0531 86.9647 50.5899 86.9647 52.462C86.9647 55.1293 85.7459 56.6661 84.527 57.5492C83.3085 58.45 81.7187 58.9798 79.4578 58.9798C78.2567 58.9798 76.1901 58.9446 74.4767 58.9268H74.4591C74.3708 58.7679 74.6003 58.1497 74.7416 58.1321C75.2009 58.0791 75.3246 58.0613 75.5543 57.9732C75.925 57.8318 75.9958 57.6375 76.0489 56.984C76.1017 55.7651 76.0841 54.2992 76.0841 52.6387C76.0841 51.4554 76.1017 49.1413 76.0663 48.3994C76.0135 47.7814 75.7485 47.6223 75.2185 47.5163C74.9536 47.4635 74.6003 47.3927 74.1059 47.3398C74.0351 47.216 74.353 46.6686 74.4412 46.5627V46.5625Z" fill="#F6F6F6" fill-opacity="0.75"/>
<path fill-rule="evenodd" clip-rule="evenodd" d="M53.0688 58.2378C52.6272 58.1848 52.3093 58.1144 51.9207 57.9377C51.8677 57.9023 51.7793 57.7258 51.7793 57.655C51.744 57.0367 51.744 55.2704 51.744 54.0872C51.744 53.1332 51.5852 52.3031 51.1788 51.7202C50.7018 51.0488 50.0131 50.6604 49.1298 50.6604C48.3527 50.6604 47.3105 51.1902 46.445 51.9321C46.4273 51.9497 46.2861 52.0736 46.3037 51.8791C46.3037 51.6848 46.3391 51.2963 46.3567 51.0312C46.3745 50.7839 46.2331 50.6604 46.2331 50.6604C45.6678 50.9429 44.0782 51.3139 43.4952 51.3667C43.0714 51.4553 42.9654 51.8615 43.4071 52.0028H43.4248C43.9014 52.144 44.2195 52.3031 44.4666 52.4621C44.6432 52.6034 44.6256 52.7977 44.6256 52.9567C44.6432 54.2813 44.6432 56.3126 44.5904 57.4255C44.5728 57.8671 44.4492 58.0259 44.131 58.0966L44.1665 58.0789C43.9192 58.132 43.7249 58.1848 43.4246 58.2202C43.3185 58.3262 43.3185 58.8915 43.4246 59.0151C43.6188 59.0151 44.6432 58.9621 45.4914 58.9621C46.657 58.9621 47.2577 59.0151 47.5578 59.0151C47.6814 58.8739 47.7168 58.3439 47.6462 58.2202C47.3105 58.2026 47.0632 58.1674 46.8337 58.0966C46.5158 58.0257 46.4273 57.8671 46.4095 57.4961C46.3745 56.5598 46.3745 54.5816 46.3745 53.2392C46.3745 52.8683 46.4804 52.6916 46.5862 52.5856C46.9926 52.2324 47.6462 51.9851 48.229 51.9851C48.7943 51.9851 49.165 52.1618 49.4477 52.3915C49.8363 52.7092 49.9599 53.1686 50.013 53.5041C50.1012 54.2636 50.066 55.765 50.066 57.0721C50.066 57.7786 50.013 57.9553 49.7482 58.0435C49.6244 58.0966 49.3065 58.1674 48.9355 58.2024C48.8119 58.3262 48.8473 58.8739 48.9355 58.9975C49.4477 58.9975 50.0484 58.9445 50.9315 58.9445C52.0266 58.9445 52.7332 58.9975 53.0159 58.9975C53.104 58.8915 53.1394 58.3793 53.0688 58.2378ZM57.9615 51.4907C57.0255 51.4907 56.4425 52.2148 56.4425 53.3451C56.4425 54.4933 56.9547 55.8181 58.4031 55.8181C58.6504 55.8181 59.1097 55.712 59.3214 55.4647C59.6572 55.147 59.8868 54.5109 59.8868 53.8397C59.8868 52.3737 59.1626 51.4906 57.9615 51.4906V51.4907ZM57.8378 59.2976C57.4847 59.2976 57.2372 59.4037 57.0783 59.4921C56.3364 59.9687 56.0009 60.4281 56.0009 60.9759C56.0009 61.4879 56.1952 61.8941 56.6192 62.2474C57.1314 62.689 57.8378 62.901 58.7386 62.901C60.5403 62.901 61.3352 61.9295 61.3352 60.9759C61.3352 60.3044 60.9995 59.8629 60.3108 59.6157C59.8162 59.4037 58.9155 59.2976 57.8378 59.2976ZM57.9615 63.8902C56.8841 63.8902 56.1068 63.6605 55.4357 63.1483C54.782 62.6537 54.4995 61.9119 54.4995 61.3997C54.4995 61.2584 54.5349 60.8696 54.8529 60.5165C55.0469 60.3044 55.4711 59.8983 56.4779 59.2094C56.5131 59.1918 56.5307 59.1742 56.5307 59.1386C56.5307 59.1034 56.4953 59.0679 56.4601 59.0505C55.63 58.7326 55.3827 58.2202 55.3118 57.9377V57.9023C55.2944 57.7962 55.259 57.6904 55.4181 57.5844C55.5417 57.4961 55.7184 57.3901 55.9125 57.2666C56.2128 57.0898 56.5307 56.8955 56.725 56.7364C56.7604 56.7012 56.7604 56.666 56.7604 56.6306C56.7604 56.5952 56.725 56.5598 56.6896 56.5423C55.4535 56.136 54.8352 55.2174 54.8352 53.8397C54.8352 52.9389 55.2414 52.1264 55.9655 51.6142C56.4601 51.2256 57.6966 50.7487 58.5091 50.7487H58.5621C59.3922 50.7663 59.8514 50.9429 60.5049 51.1726C60.8582 51.2963 61.194 51.3491 61.6533 51.3491C62.342 51.3491 62.6423 51.1372 62.8894 50.8901C62.9072 50.9253 62.9426 51.0138 62.9602 51.2433C62.9779 51.4729 62.9072 51.8085 62.7306 52.0558C62.5893 52.2501 62.2714 52.3915 61.9534 52.3915H61.865C61.5471 52.3561 61.4056 52.3207 61.4056 52.3207L61.3352 52.3561C61.3176 52.3915 61.3352 52.4267 61.3528 52.4797L61.3706 52.5151C61.4058 52.674 61.4765 53.1508 61.4765 53.2746C61.4765 54.723 60.8936 55.3587 60.2754 55.8357C59.6748 56.2772 58.9861 56.5598 58.2088 56.6306C58.1912 56.6306 58.1207 56.6306 57.9615 56.6482C57.8732 56.6482 57.7496 56.666 57.7318 56.666H57.7142C57.5729 56.7012 57.2198 56.8779 57.2198 57.178C57.2198 57.4429 57.3787 57.761 58.1382 57.814C58.297 57.8316 58.4559 57.8317 58.6327 57.8495C59.6395 57.9199 60.8936 58.0083 61.4765 58.2026C62.289 58.5027 62.8012 59.227 62.8012 60.0925C62.8012 61.3998 61.8652 62.6185 60.3108 63.3778C59.5513 63.7136 58.7916 63.8902 57.9615 63.8902ZM68.0295 51.579C67.6587 51.579 67.323 51.667 67.0757 51.8437C66.387 52.2677 66.0337 53.1156 66.0337 54.3519C66.0337 56.666 67.1993 58.291 68.8598 58.291C69.3544 58.291 69.7429 58.1496 70.0785 57.8671C70.5907 57.4429 70.8558 56.5952 70.8558 55.4117C70.8558 53.1156 69.7075 51.5788 68.0296 51.5788L68.0295 51.579ZM68.3476 59.1388C65.3448 59.1388 64.2674 56.9309 64.2674 54.8643C64.2674 53.4159 64.8502 52.3031 66.0159 51.5082C66.8462 50.996 67.8354 50.7134 68.7185 50.7134C71.0146 50.7134 72.622 52.3561 72.622 54.723C72.622 56.3303 71.9862 57.602 70.7673 58.3793C70.1845 58.7678 69.1777 59.1388 68.3474 59.1388H68.3476ZM36.8716 51.5788C36.5006 51.5788 36.1651 51.667 35.9176 51.8437C35.2289 52.2677 34.8756 53.1156 34.8756 54.3519C34.8756 56.666 36.0413 58.291 37.7017 58.291C38.1963 58.291 38.5849 58.1496 38.9206 57.8671C39.4326 57.4429 39.6977 56.5952 39.6977 55.4117C39.6977 53.1156 38.5672 51.5788 36.8716 51.5788ZM37.1895 59.1388C34.1867 59.1388 33.1093 56.9309 33.1093 54.8643C33.1093 53.4159 33.6921 52.3031 34.8578 51.5082C35.6881 50.996 36.6773 50.7134 37.5604 50.7134C39.8567 50.7134 41.464 52.3561 41.464 54.723C41.464 56.3303 40.8281 57.602 39.6093 58.3793C39.044 58.7678 38.0372 59.1388 37.1895 59.1388ZM17.0004 58.9621C16.9649 58.9093 16.9295 58.7502 16.9473 58.5559C16.9473 58.4145 16.9827 58.3262 17.0004 58.291C17.3713 58.2378 17.5656 58.1848 17.7775 58.132C18.1308 58.0435 18.2721 57.8495 18.2897 57.4079C18.3429 56.3481 18.3429 54.3343 18.3251 52.9389V52.9035C18.3251 52.7446 18.3251 52.5502 18.1308 52.4089C17.8481 52.2324 17.5126 52.0736 17.071 51.9495C16.9121 51.8969 16.8061 51.8085 16.8237 51.7026C16.8237 51.5966 16.9297 51.4729 17.1594 51.4375C17.7422 51.3845 19.2611 51.0138 19.8617 50.7487C19.8971 50.7839 19.9501 50.8901 19.9501 51.0314L19.9325 51.2255C19.9147 51.4199 19.8971 51.6496 19.8971 51.8791C19.8971 51.9497 19.9679 52.0028 20.0384 52.0028C20.0738 52.0028 20.1092 51.9851 20.1444 51.9673C21.2748 51.0842 22.2992 50.7663 22.8291 50.7663C23.6948 50.7663 24.366 51.1726 24.8783 52.0204C24.9135 52.0736 24.9489 52.0912 25.0019 52.0912C25.0371 52.0912 25.0899 52.0736 25.1077 52.0382C26.15 51.2433 27.1922 50.7663 27.8808 50.7663C29.5235 50.7663 30.4951 51.9851 30.4951 54.0518C30.4951 54.6346 30.4951 55.3941 30.4775 56.0832C30.4775 56.7012 30.4598 57.2664 30.4598 57.6728C30.4598 57.7608 30.5833 58.0435 30.7776 58.0966C31.0249 58.2202 31.3606 58.2732 31.8022 58.3439H31.8198C31.8552 58.4675 31.7846 58.9267 31.7139 59.0151C31.6079 59.0151 31.4488 59.0151 31.2724 58.9975C30.8252 58.9742 30.3776 58.9624 29.9298 58.9621C28.8348 58.9621 28.2696 58.9797 27.7218 59.0151C27.6868 58.8739 27.669 58.4499 27.7218 58.3439C28.0399 58.291 28.1988 58.2378 28.3932 58.185C28.7466 58.0789 28.8348 57.9199 28.8526 57.4607C28.8526 57.1252 28.923 54.2636 28.817 53.5748C28.7112 52.8683 28.1812 52.0382 27.0153 52.0382C26.5737 52.0382 25.885 52.2148 25.2138 52.7268C25.1786 52.7623 25.143 52.8505 25.143 52.9035V52.9213C25.2138 53.2921 25.2138 53.7162 25.2138 54.3697V55.5177C25.2138 56.3127 25.196 57.0545 25.2138 57.6196C25.2138 58.0083 25.4435 58.0966 25.6378 58.1674C25.7438 58.1848 25.8142 58.2026 25.9027 58.2202C26.0615 58.2556 26.2206 58.291 26.4679 58.3439C26.5033 58.4147 26.5033 58.6442 26.4503 58.8384C26.4325 58.9445 26.3971 58.9973 26.3795 59.0151C25.779 58.9975 25.1608 58.9797 24.26 58.9797C23.9951 58.9797 23.5357 58.9975 23.1472 58.9975C22.8291 58.9975 22.5289 59.0151 22.3525 59.0151C22.3347 58.9797 22.2992 58.8562 22.2992 58.6618C22.2992 58.5029 22.3347 58.3793 22.3701 58.3439C22.4583 58.3262 22.5289 58.3086 22.6174 58.3086C22.8291 58.2732 23.0059 58.2378 23.1824 58.2026C23.4829 58.1144 23.5887 57.9553 23.6064 57.5667C23.6594 56.6836 23.7124 54.1578 23.5887 53.5218C23.3769 52.4973 22.794 51.9851 21.8577 51.9851C21.3102 51.9851 20.6212 52.2501 20.0562 52.6742C19.9677 52.7446 19.8971 52.9211 19.8971 53.0802V54.1224C19.8971 55.3941 19.8971 56.9839 19.9147 57.6728C19.9325 57.8845 20.0029 58.132 20.4093 58.2202C20.4977 58.2378 20.639 58.2732 20.8157 58.291L21.1334 58.3439C21.169 58.4499 21.1512 58.8739 21.0806 59.0151C20.9039 59.0151 20.692 58.9975 20.4445 58.9975C20.0738 58.9797 19.5968 58.9621 19.067 58.9621C18.4487 58.9621 18.0072 58.9797 17.6538 58.9975C17.4065 58.9621 17.2122 58.9621 17.0004 58.9621Z" fill="#F6F6F6"/>
<path fill-rule="evenodd" clip-rule="evenodd" d="M7.70941 63.2015L6.98532 62.954C6.98532 62.954 7.07375 59.2625 5.74884 58.9976C4.86588 57.973 5.89048 15.5459 9.06973 58.8562C9.06973 58.8562 7.97451 59.4036 7.78023 60.3399C7.56815 61.2585 7.70941 63.2015 7.70941 63.2015Z" fill="#F6F6F6"/>
<path fill-rule="evenodd" clip-rule="evenodd" d="M7.70941 63.2015L6.98532 62.954C6.98532 62.954 7.07375 59.2625 5.74884 58.9976C4.86588 57.973 5.89048 15.5459 9.06973 58.8562C9.06973 58.8562 7.97451 59.4036 7.78023 60.3399C7.56815 61.2585 7.70941 63.2015 7.70941 63.2015Z" fill="#F6F6F6"/>
<path fill-rule="evenodd" clip-rule="evenodd" d="M8.09819 59.6335C8.09819 59.6335 14.4395 55.4648 12.9555 46.792C11.5249 40.4865 8.15121 38.4199 7.78026 37.625C7.3741 37.0598 6.98535 36.0708 6.98535 36.0708L7.25045 53.6101C7.25045 53.6279 6.70284 58.9798 8.09838 59.6337" fill="#F6F6F6"/>
<path fill-rule="evenodd" clip-rule="evenodd" d="M8.09819 59.6335C8.09819 59.6335 14.4395 55.4648 12.9555 46.792C11.5249 40.4865 8.15121 38.4199 7.78026 37.625C7.3741 37.0598 6.98535 36.0708 6.98535 36.0708L7.25045 53.6101C7.25045 53.6279 6.70284 58.9798 8.09838 59.6337" fill="#F6F6F6" fill-opacity="0.3"/>
<path fill-rule="evenodd" clip-rule="evenodd" d="M6.61451 59.863C6.61451 59.863 0.661794 55.8004 1.01513 48.647C1.35066 41.4934 5.55451 37.9784 6.36703 37.3425C6.89703 36.7773 6.91464 36.5652 6.95005 36C7.32099 36.7949 7.25036 47.8875 7.30319 49.1944C7.46206 54.2284 7.02068 58.9094 6.61451 59.863Z" fill="#F6F6F6"/>
<path fill-rule="evenodd" clip-rule="evenodd" d="M6.61451 59.863C6.61451 59.863 0.661794 55.8004 1.01513 48.647C1.35066 41.4934 5.55451 37.9784 6.36703 37.3425C6.89703 36.7773 6.91464 36.5652 6.95005 36C7.32099 36.7949 7.25036 47.8875 7.30319 49.1944C7.46206 54.2284 7.02068 58.9094 6.61451 59.863Z" fill="#F6F6F6"/>
</svg>
