<svg width="75" height="85" viewBox="0 0 75 85" fill="none" xmlns="http://www.w3.org/2000/svg">
<path d="M37.2135 0C36.4252 0 35.6366 0.21011 34.9534 0.63068L2.2601 19.5002C0.8408 20.2888 0 21.8128 0 23.3893V61.1287C0 62.7581 0.8408 64.2299 2.2601 65.0185L34.9534 83.8881C35.6366 84.3086 36.4249 84.5188 37.2135 84.5188C38.0014 84.5188 38.7904 84.3086 39.4736 83.8881L72.1669 65.0182C73.5862 64.23 74.427 62.7056 74.427 61.1291V23.3893C74.427 21.7603 73.5862 20.2888 72.1669 19.5002L39.4736 0.63034C38.79 0.21011 38.0018 0 37.2135 0ZM37.2135 1.57687C37.7388 1.57687 38.2122 1.73445 38.685 1.99743L71.3783 20.867C72.272 21.3922 72.8498 22.3913 72.8498 23.4425V61.1816C72.8498 62.2329 72.272 63.2312 71.3783 63.7569L38.6853 82.6264C38.2122 82.889 37.7391 83.047 37.2135 83.047C36.6935 83.0448 36.1842 82.8992 35.7417 82.6261L3.0483 63.7572C2.1547 63.2316 1.5765 62.2332 1.5765 61.1819V23.4425C1.5765 22.3913 2.1547 21.3926 3.048 20.8666L35.7413 1.99743C36.2144 1.73445 36.7401 1.57653 37.2128 1.57653L37.2135 1.57687ZM34.1911 34.4803H38.6062C38.7641 34.4803 38.8692 34.4274 38.9742 34.3224C41.6023 31.3791 41.8653 25.2292 41.8653 23.3897C41.8653 23.127 41.6549 22.8641 41.3397 22.8641H31.4579C31.1953 22.8641 30.9323 23.0742 30.9323 23.3897C30.9323 25.1767 31.1953 31.3265 33.8234 34.3224C33.9284 34.4274 34.0335 34.4803 34.1911 34.4803ZM32.9822 24.4935H39.9204C40.183 24.4935 40.446 24.7036 40.446 25.0191C40.446 26.4909 40.183 30.643 38.3961 32.798C38.2385 32.9034 38.1334 32.9559 37.9755 32.9559H34.8746C34.7167 32.9559 34.6116 32.9034 34.5066 32.798C32.7193 30.6959 32.5091 26.4909 32.4566 25.0191C32.4566 24.7564 32.6667 24.4935 32.9822 24.4935ZM37.3973 21.8131C37.3973 21.8131 39.2897 20.709 38.1331 18.7119C37.4499 17.6604 37.1347 16.767 37.3973 16.399C36.7141 17.2401 35.5578 18.1335 36.8192 20.0258C37.2401 20.4989 37.4499 21.4973 37.3973 21.8128V21.8131ZM35.2948 21.9704C35.2948 21.9704 36.5562 21.2347 35.7679 19.8679C35.2948 19.1847 35.0847 18.554 35.2948 18.3436C34.8218 18.9217 34.086 19.4999 34.9268 20.8141C35.1898 21.0767 35.2948 21.7603 35.2948 21.9704ZM35.1373 32.3253H37.7654C37.8704 32.3253 37.9755 32.2727 38.0806 32.1677C38.9742 31.1164 39.3948 29.487 39.6049 28.0677C39.6049 28.0677 39.5524 28.5408 38.291 29.0139C36.5569 29.6446 33.5079 29.2241 33.5079 29.2241C33.7705 30.3278 34.1914 31.3791 34.8218 32.1677C34.8743 32.2727 35.0322 32.3253 35.1373 32.3253ZM15.374 47.0949V36.5828H13.4295L10.2232 41.5235L7.0169 36.5828H5.072V47.1474H6.9116V39.6311L10.1703 44.5193H10.2229L13.5345 39.5786V47.0949H15.374ZM27.1482 36.7929C26.4647 36.5302 25.7289 36.3723 24.9407 36.3723C24.152 36.3723 23.4163 36.4774 22.7328 36.7932C22.0492 37.0559 21.4714 37.4761 20.9983 37.9492C20.5015 38.4448 20.1084 39.0344 19.842 39.6836C19.5794 40.3672 19.4211 41.05 19.4211 41.7861V41.8386C19.4211 42.5744 19.5794 43.3105 19.842 43.9411C20.1047 44.6247 20.4727 45.2025 20.9458 45.6756C21.4189 46.1487 21.997 46.5692 22.6799 46.8319C23.3634 47.0949 24.0995 47.2528 24.8878 47.2528C25.6764 47.2528 26.4121 47.1474 27.0957 46.8319C27.7789 46.5692 28.357 46.1487 28.8298 45.6756C29.3267 45.1801 29.7199 44.5906 29.9864 43.9415C30.2491 43.2579 30.407 42.5744 30.407 41.8386V41.7861C30.407 41.05 30.2487 40.3146 29.9861 39.6836C29.7234 39.0004 29.3557 38.4223 28.8827 37.9495C28.4096 37.4761 27.8314 37.0555 27.1482 36.7929ZM28.4096 41.8912C28.4096 42.3643 28.3045 42.8374 28.1466 43.3105C27.9365 43.7307 27.7264 44.1512 27.4108 44.4668C27.088 44.7875 26.7152 45.0537 26.3071 45.255C25.8862 45.4655 25.4134 45.5705 24.8878 45.5705C24.415 45.5705 23.8894 45.4655 23.4688 45.255C23.0607 45.0538 22.6879 44.7877 22.3651 44.4671C22.0496 44.0987 21.7869 43.7307 21.629 43.2583C21.4714 42.7848 21.3663 42.3121 21.3663 41.7861V41.7336C21.3663 41.2605 21.4714 40.7874 21.629 40.3143C21.8394 39.8937 22.0496 39.4735 22.3651 39.158C22.6879 38.8372 23.0607 38.5708 23.4688 38.3694C23.8894 38.1593 24.3622 38.0542 24.8878 38.0542C25.4131 38.0542 25.8865 38.1593 26.3071 38.3694C26.7152 38.5708 27.088 38.8372 27.4108 39.158C27.7264 39.526 27.989 39.8937 28.1466 40.3668C28.3045 40.8399 28.4092 41.313 28.4092 41.8386V41.8912H28.4096ZM36.1885 40.3143C36.3986 39.8937 36.6091 39.4732 36.9242 39.158C37.2472 38.8373 37.62 38.571 38.028 38.3694C38.4486 38.1593 38.8692 38.0542 39.3948 38.0542C40.0255 38.0542 40.5511 38.1593 41.0242 38.4219C41.4973 38.6849 41.9178 39.0004 42.3381 39.3681L43.5472 38.0017C43.2843 37.7391 43.0216 37.5286 42.7586 37.3182C42.496 37.108 42.1805 36.9505 41.8653 36.7929C41.4973 36.6875 41.1818 36.5824 40.7612 36.4774C40.341 36.4248 39.9204 36.3723 39.4473 36.3723C38.6062 36.3723 37.923 36.5299 37.2398 36.7925C36.5565 37.0555 35.9784 37.4761 35.5053 37.9492C35.0414 38.4603 34.6681 39.0469 34.4015 39.6836C34.1261 40.3505 33.9832 41.0646 33.981 41.7861V41.8386C33.981 42.5744 34.1385 43.2576 34.4015 43.9411C34.6642 44.6247 35.0322 45.2025 35.5053 45.6756C35.9784 46.1487 36.5565 46.5692 37.1872 46.8319C37.8525 47.1126 38.5677 47.2557 39.2897 47.2528C39.7628 47.2528 40.2356 47.2528 40.7087 47.1474C41.0767 47.0949 41.4973 46.9369 41.8124 46.7794C42.1279 46.6218 42.4435 46.4639 42.7586 46.2012C43.0741 45.9386 43.3368 45.7281 43.5998 45.4126L42.3909 44.2038C41.9178 44.6247 41.4447 44.9399 41.0242 45.2025C40.6036 45.4655 40.0255 45.5705 39.3948 45.5705C38.9217 45.5705 38.4486 45.4126 38.028 45.255C37.6078 45.0974 37.2398 44.7819 36.9242 44.4671C36.6091 44.0987 36.3461 43.7307 36.1885 43.2576C36.0309 42.7848 35.9255 42.3117 35.9255 41.7861V41.7336C35.9255 41.2605 36.0309 40.7874 36.1885 40.3143ZM47.2791 36.5828V47.0949H49.1186V42.6798H54.1647V47.0949H56.0043V36.5824H54.1647V40.9453H49.1186V36.5824H47.2791V36.5828ZM67.4626 44.5722L68.5138 47.0952H70.4584L65.8332 36.5302H64.1509L59.5257 47.0949H61.4181L62.5215 44.5718H67.4626V44.5722ZM64.992 38.7378L66.779 42.9428H63.2051L64.992 38.7378ZM3.7582 50.984H70.7739V50.4058H3.7582V50.984ZM42.2859 30.6427C42.2859 30.8528 42.233 31.0107 42.233 31.2211H70.7739V30.6427H42.2855H42.2859ZM30.5646 30.6427H3.7582V31.2211H30.6171C30.6171 31.011 30.5642 30.8531 30.5642 30.6427H30.5646Z" fill="#F6F6F6"/>
</svg>
