<svg width="98" height="29" viewBox="0 0 98 29" fill="none" xmlns="http://www.w3.org/2000/svg">
<path d="M0.63777 22.1321V11.2256H14.2552V10.5876H0.63777V0.637798H15.1161V0H0V22.7699H15.2436V22.1321H0.63796H0.63777ZM27.5217 6.378L21.8772 13.8086L16.3599 6.3782H15.5307L21.4943 14.2871L14.9565 22.7697H15.7219L21.8768 14.7651L28.0636 22.7697H28.8608L22.2914 14.2868L28.2868 6.3778H27.5215L27.5217 6.378ZM30.7745 28.3827V18.1779H30.8382C31.221 19.666 31.9758 20.8619 33.1026 21.7656C34.2294 22.669 35.6643 23.1209 37.4077 23.1209C38.5345 23.1209 39.5338 22.8924 40.4055 22.4353C41.2771 21.9782 42.0053 21.3563 42.59 20.5697C43.1746 19.783 43.6211 18.8688 43.9295 17.827C44.2376 16.7854 44.3919 15.6903 44.3919 14.5425C44.3919 13.3092 44.2323 12.1717 43.9134 11.1301C43.5945 10.0883 43.1321 9.1846 42.5263 8.4194C41.9203 7.654 41.1868 7.0585 40.3257 6.6336C39.4647 6.2083 38.492 5.9956 37.4077 5.9956C36.5785 5.9956 35.8079 6.1179 35.0957 6.3623C34.3835 6.607 33.751 6.9523 33.1983 7.3988C32.6422 7.8488 32.1583 8.3811 31.7631 8.9773C31.3592 9.5833 31.0509 10.2477 30.8382 10.9706H30.7745V6.378H30.1367V28.3827H30.7745ZM37.4077 22.5147C35.4094 22.5147 33.8041 21.8291 32.5923 20.4579C31.3805 19.0866 30.7745 17.1146 30.7745 14.5421C30.7745 13.479 30.9234 12.4692 31.221 11.5125C31.5187 10.5559 31.9491 9.716 32.5125 8.9932C33.076 8.2703 33.7723 7.6963 34.6013 7.2711C35.4304 6.8458 36.366 6.6332 37.4077 6.6332C38.4707 6.6332 39.401 6.8458 40.1982 7.2711C40.9954 7.6963 41.6546 8.2756 42.1754 9.0091C42.6962 9.7426 43.0896 10.5825 43.3554 11.5284C43.6211 12.4745 43.7539 13.479 43.7539 14.5421C43.7539 15.4989 43.6318 16.4504 43.3872 17.3963C43.1428 18.3425 42.7653 19.1929 42.255 19.9478C41.7449 20.7023 41.0913 21.3188 40.2939 21.7973C39.4965 22.2757 38.5345 22.5147 37.4077 22.5147ZM47.8998 22.7699V13.4897C47.8998 12.5968 48.0273 11.725 48.2826 10.8747C48.5376 10.0243 48.9309 9.2748 49.4624 8.6265C49.994 7.978 50.6689 7.4677 51.4875 7.0956C52.306 6.7235 53.2787 6.5694 54.4055 6.6332V5.9954C53.4274 5.9744 52.5718 6.0804 51.8384 6.3143C51.1047 6.5482 50.4723 6.8671 49.9408 7.2711C49.4092 7.675 48.9841 8.148 48.6652 8.6902C48.3466 9.2316 48.1101 9.8173 47.9635 10.4282H47.8998V6.378H47.262V22.7701H47.8998V22.7699ZM55.2027 14.7015H68.9156C68.9583 13.5747 68.8467 12.4906 68.5809 11.4488C68.3152 10.4069 67.8899 9.4821 67.3053 8.6743C66.7206 7.8664 65.9659 7.2179 65.041 6.7289C64.1161 6.2398 63.0159 5.9954 61.7404 5.9954C60.826 5.9954 59.9331 6.1868 59.0615 6.5696C58.1898 6.9523 57.4244 7.5102 56.7654 8.2437C56.1063 8.9771 55.5748 9.8754 55.1709 10.9387C54.7671 12.0016 54.5649 13.2133 54.5649 14.5741C54.5649 15.7858 54.7031 16.918 54.9795 17.9704C55.2559 19.0227 55.681 19.9371 56.2551 20.713C56.8293 21.489 57.5681 22.0896 58.4715 22.5147C59.375 22.94 60.4647 23.142 61.7404 23.1207C63.6112 23.1207 65.1845 22.5944 66.4601 21.5422C67.7358 20.4897 68.4905 19.0068 68.7244 17.0933H68.0866C67.8103 18.9006 67.1032 20.2559 65.9659 21.1594C64.8283 22.063 63.3987 22.5147 61.6765 22.5147C60.5072 22.5147 59.5185 22.3128 58.7106 21.9089C57.9029 21.5051 57.2437 20.9521 56.7334 20.2506C56.2233 19.5489 55.8458 18.7251 55.6014 17.779C55.3568 16.833 55.224 15.8071 55.2027 14.7015ZM68.2779 14.0638H55.2029C55.2665 12.9157 55.4791 11.8846 55.8405 10.9704C56.202 10.0561 56.675 9.2748 57.2598 8.6265C57.8443 7.978 58.5248 7.4838 59.3007 7.1435C60.0767 6.8033 60.9112 6.6332 61.8041 6.6332C62.8672 6.6332 63.8024 6.8299 64.6105 7.2233C65.4183 7.6166 66.0933 8.1535 66.6356 8.8338C67.1777 9.514 67.5869 10.3061 67.8633 11.2095C68.1397 12.1131 68.2779 13.0646 68.2779 14.0638ZM82.1504 11.2256H82.7882C82.7882 9.3971 82.2566 8.0683 81.1938 7.2392C80.1305 6.41 78.6848 5.9954 76.8565 5.9954C75.8359 5.9954 74.975 6.1231 74.2733 6.3782C73.5718 6.6332 72.9977 6.9628 72.5512 7.3667C72.1048 7.7705 71.786 8.2171 71.5946 8.7061C71.4031 9.1952 71.3074 9.663 71.3074 10.1093C71.3074 11.0022 71.4669 11.7144 71.786 12.246C72.1048 12.7775 72.6044 13.1921 73.2847 13.4897C73.7525 13.7022 74.2838 13.8936 74.8793 14.064C75.4745 14.2339 76.1655 14.4146 76.9522 14.6058C77.6537 14.7762 78.3447 14.9461 79.0251 15.1161C79.7054 15.2863 80.306 15.5148 80.8268 15.8017C81.3478 16.0888 81.773 16.4556 82.1026 16.9021C82.432 17.3485 82.5968 17.9332 82.5968 18.656C82.5968 19.3577 82.4322 19.953 82.1026 20.4418C81.7758 20.9283 81.3457 21.3367 80.8429 21.6379C80.3326 21.9461 79.7638 22.1692 79.1367 22.3074C78.5095 22.4456 77.8983 22.5147 77.303 22.5147C75.3683 22.5147 73.8853 22.0843 72.8542 21.2233C71.8231 20.3622 71.3076 19.0068 71.3076 17.1571H70.6697C70.6697 19.2195 71.2278 20.7289 72.3439 21.6858C73.4602 22.6424 75.1132 23.1207 77.303 23.1207C78.0046 23.1207 78.7114 23.0409 79.4238 22.8815C80.1359 22.722 80.7738 22.4617 81.3371 22.1001C81.8957 21.7437 82.3648 21.2637 82.7084 20.6971C83.0592 20.1229 83.2347 19.4214 83.2347 18.5922C83.2347 17.8056 83.0805 17.1678 82.7723 16.6788C82.4639 16.1899 82.0601 15.7858 81.5603 15.467C81.0607 15.1481 80.4974 14.8983 79.8702 14.7176C79.2394 14.5359 78.6069 14.3604 77.9726 14.1912C77.192 13.9864 76.4107 13.7845 75.6286 13.5854C74.9591 13.4153 74.3372 13.2133 73.7632 12.9794C73.2104 12.7455 72.7692 12.4108 72.4396 11.9749C72.11 11.5391 71.9454 10.9172 71.9454 10.1093C71.9454 9.9606 71.9879 9.6947 72.0729 9.3121C72.1579 8.9293 72.36 8.5413 72.6789 8.148C72.9977 7.7548 73.4866 7.404 74.1458 7.0956C74.8048 6.7875 75.7084 6.6332 76.8565 6.6332C77.6432 6.6332 78.3606 6.7184 79.0091 6.8883C79.6575 7.0585 80.2157 7.3295 80.6833 7.7016C81.1511 8.0737 81.5125 8.5467 81.7676 9.1207C82.0227 9.6949 82.1504 10.3964 82.1504 11.2256ZM96.9157 11.2256H97.5534C97.5534 9.3971 97.0221 8.0683 95.959 7.2392C94.896 6.41 93.4503 5.9954 91.6218 5.9954C90.6014 5.9954 89.7402 6.1231 89.0387 6.3782C88.337 6.6332 87.763 6.9628 87.3167 7.3667C86.8701 7.7705 86.5512 8.2171 86.3598 8.7061C86.1684 9.1952 86.0729 9.663 86.0729 10.1093C86.0729 11.0022 86.2323 11.7144 86.5514 12.246C86.8701 12.7775 87.3699 13.1921 88.0501 13.4897C88.5179 13.7022 89.0493 13.8936 89.6445 14.064C90.2398 14.2339 90.9308 14.4146 91.7175 14.6058C92.4192 14.7762 93.1101 14.9461 93.7904 15.1161C94.4708 15.2863 95.0713 15.5148 95.5923 15.8017C96.1131 16.0888 96.5384 16.4556 96.8678 16.9021C97.1974 17.3485 97.3622 17.9332 97.3622 18.656C97.3622 19.3577 97.1974 19.953 96.8678 20.4418C96.5411 20.9283 96.1111 21.3367 95.6084 21.6379C95.0979 21.9461 94.5292 22.1692 93.902 22.3074C93.2749 22.4456 92.6636 22.5147 92.0683 22.5147C90.1336 22.5147 88.6508 22.0843 87.6197 21.2233C86.5884 20.3622 86.0729 19.0068 86.0729 17.1571H85.4351C85.4351 19.2195 85.9931 20.7289 87.1094 21.6858C88.2255 22.6424 89.8784 23.1207 92.0683 23.1207C92.77 23.1207 93.4769 23.0409 94.1891 22.8815C94.9011 22.722 95.5391 22.4617 96.1026 22.1001C96.6611 21.7437 97.1303 21.2637 97.4738 20.6971C97.8247 20.1229 98 19.4214 98 18.5922C98 17.8056 97.8459 17.1678 97.5376 16.6788C97.2294 16.1899 96.8255 15.7858 96.3258 15.467C95.8262 15.1481 95.2627 14.8983 94.6357 14.7176C94.0049 14.5359 93.3723 14.3604 92.7381 14.1912C91.9575 13.9864 91.1761 13.7845 90.3941 13.5854C89.7244 13.4153 89.1025 13.2133 88.5285 12.9794C87.9757 12.7455 87.5345 12.4108 87.2051 11.9749C86.8755 11.5391 86.7107 10.9172 86.7107 10.1093C86.7107 9.9606 86.7532 9.6947 86.8383 9.3121C86.9233 8.9293 87.1254 8.5413 87.4441 8.148C87.763 7.7548 88.2521 7.404 88.9111 7.0956C89.5703 6.7875 90.4737 6.6332 91.622 6.6332C92.4086 6.6332 93.126 6.7184 93.7745 6.8883C94.423 7.0585 94.9809 7.3295 95.4487 7.7016C95.9165 8.0737 96.2779 8.5467 96.5331 9.1207C96.7882 9.6949 96.9159 10.3964 96.9159 11.2256H96.9157Z" fill="#F6F6F6"/>
</svg>
