<svg width="89" height="98" viewBox="0 0 89 98" fill="none" xmlns="http://www.w3.org/2000/svg">
<path d="M85.4079 48.2511C85.4079 42.7103 81.4158 38.0871 76.1571 37.0995L88.7358 0H29.278L41.8757 37.1747C36.8001 38.3044 32.9927 42.8403 32.9927 48.2511C32.9927 52.3146 35.1401 55.8838 38.3585 57.8894C36.8105 60.1954 34.9747 62.3657 32.8711 64.3501C29.5352 67.4974 25.8183 69.8843 21.8113 71.4545C17.7756 68.9193 16.0695 64.1386 17.8414 59.9736L17.9801 59.6478C18.0668 59.444 18.1538 59.2394 18.2404 59.0349C22.673 57.4893 25.8637 53.2699 25.8637 48.3166C25.8637 42.0583 20.7722 36.9671 14.5139 36.9671C8.2556 36.9671 3.16434 42.0583 3.16434 48.3166C3.16434 51.4754 4.4625 54.3358 6.5519 56.3954C6.173 57.203 5.7748 58.0238 5.3654 58.8647C3.45481 62.7889 1.28945 67.2368 0.470382 72.1758C-1.15633 81.9849 1.46727 89.8263 7.858 94.2554C11.736 96.9431 15.674 98.0003 19.637 98C27.0994 97.9997 34.6479 94.2509 42.031 90.5836C47.3485 87.9427 52.8467 85.2116 58.2779 83.8723C60.2987 83.3738 62.3781 83.074 64.5796 82.7565C68.9449 82.1267 73.4594 81.4757 77.458 79.1599C82.0927 76.4753 85.2657 71.972 86.1628 66.8049C86.933 62.3691 86.0058 57.9268 83.7451 54.159C84.7992 52.437 85.4079 50.4141 85.4079 48.2511ZM80.9523 48.2511C80.9523 52.0525 77.8598 55.1455 74.058 55.1455C70.2569 55.1455 67.164 52.0525 67.164 48.2511C67.164 44.4497 70.2569 41.3571 74.058 41.3571C77.8598 41.3571 80.9523 44.4497 80.9523 48.2511ZM82.5205 4.45551L71.4129 37.216C70.9314 37.3314 70.4621 37.477 70.0063 37.652L59.0336 15.2678L48.0289 37.5196C47.5534 37.3557 47.0639 37.2208 46.562 37.121L35.4926 4.45551H82.5205ZM44.3423 41.3571C48.1437 41.3571 51.2363 44.4497 51.2363 48.2511C51.2363 52.0525 48.1437 55.1455 44.3423 55.1455C40.5412 55.1455 37.4482 52.0525 37.4482 48.2511C37.4482 44.4497 40.5412 41.3571 44.3423 41.3571ZM14.5139 41.4226C18.3156 41.4226 21.4082 44.5152 21.4082 48.3166C21.4082 52.1181 18.3156 55.211 14.5139 55.211C10.7128 55.211 7.6199 52.1181 7.6199 48.3166C7.6199 44.5152 10.7128 41.4226 14.5139 41.4226ZM81.7728 66.0426C81.1021 69.9068 78.7152 73.2826 75.2247 75.3041C71.971 77.1887 68.0718 77.7513 63.9435 78.3464C61.732 78.6653 59.445 78.9953 57.211 79.5464C51.3038 81.0029 45.5821 83.8449 40.049 86.5933C28.9761 92.0932 19.413 96.8426 10.3963 90.5933C3.79139 86.0158 4.0964 77.5461 4.8659 72.9048C5.5789 68.6049 7.5069 64.6447 9.3713 60.8149C9.694 60.1521 10.0074 59.5029 10.3149 58.8578C11.2396 59.2277 12.223 59.4797 13.248 59.594C11.3502 65.8579 14.335 72.6684 20.5995 75.8868L21.4567 76.3273L22.3649 76.0039C27.3175 74.2403 31.8808 71.4098 35.9286 67.591C38.5453 65.1227 40.7939 62.3916 42.6428 59.4734C43.1974 59.557 43.7648 59.601 44.3423 59.601C50.6005 59.601 55.6921 54.5098 55.6921 48.2511C55.6921 44.8854 54.2179 41.8587 51.8831 39.7782L59.0159 25.3545L66.2212 40.0531C64.0593 42.1211 62.7085 45.0303 62.7085 48.2511C62.7085 54.5098 67.7997 59.601 74.058 59.601C76.4625 59.601 78.6931 58.8474 80.5302 57.567C81.8057 60.1781 82.281 63.1161 81.7728 66.0426Z" fill="#F6F6F6"/>
</svg>
