<svg width="100" height="100" viewBox="0 0 100 100" fill="none" xmlns="http://www.w3.org/2000/svg">
<path d="M25 6H28.9303V9.88349H32.5256V6H36.456V17.7603H32.5256V13.8223H28.9303V17.7603H25.0003L25 6ZM41.6249 9.90006H38.1649V6H49.0175V9.90006H45.5559V17.7603H41.625V9.90006H41.6249ZM50.7396 6H54.8381L57.3592 10.1323L59.8778 6H63.9777V17.7603H60.0629V11.9311L57.3587 16.1126H57.2912L54.5853 11.9311V17.7603H50.7395V6H50.7396ZM65.9335 6H69.8649V13.8731H75.3925V17.7603H65.9335V6Z" fill="#F6F6F6"/>
<path fill-rule="evenodd" clip-rule="evenodd" d="M19 23.1387L24.6222 86.2053L49.8519 93.21L75.1512 86.1954L80.7796 23.1387H19ZM49.8631 51.686H39.6557L38.9488 43.7654H49.8631H49.8898H68.5448L68.6996 42.0267L69.0521 38.1056L69.2371 36.0305H49.8898H49.8631H30.496L30.6814 38.1056L32.5822 59.4207H49.8631H49.8898H59.3869L58.489 69.4524L49.8631 71.7806V71.7814L49.8558 71.7834L41.2423 69.4572L40.6916 63.2885H32.9279L34.0116 75.4334L49.8544 79.8318L49.8898 79.8218V79.8203L65.7185 75.4334L65.8345 74.1262L67.6522 53.7631L67.8409 51.686H65.757H49.8898H49.8631Z" fill="#F6F6F6"/>
</svg>
