<svg width="83" height="26" viewBox="0 0 83 26" fill="none" xmlns="http://www.w3.org/2000/svg">
<path d="M7.23121 26C4.60524 26 2.74355 25.8646 1.64613 25.5938C0.54871 25.3229 0 25.0521 0 24.7812L1.76371 20.4286C2.90032 20.5446 4.97758 20.6801 7.99548 20.8348C11.0526 20.9509 14.8152 21.0089 19.2832 21.0089H22.2227C23.2026 21.0089 23.8101 20.7574 24.0452 20.2545C24.3196 19.7128 24.4568 18.997 24.4568 18.1071C24.4568 17.2173 24.3 16.5015 23.9865 15.9598C23.7121 15.4182 23.1242 15.1473 22.2227 15.1473H7.76032C5.01677 15.1473 3.0375 14.6443 1.8225 13.6384C0.6075 12.5937 0 11.0461 0 8.99554V6.67411C0 6.13244 0.0587904 5.49405 0.176371 4.75893C0.293952 4.02381 0.587903 3.28869 1.05823 2.55357C1.52855 1.81845 2.29282 1.21875 3.35105 0.754463C4.40927 0.251488 5.87903 0 7.76032 0H23.9865C26.3381 0 28.0038 0.135417 28.9836 0.40625C29.9635 0.677083 30.4534 0.947916 30.4534 1.21875L29.8655 5.57143C28.7289 5.45536 26.632 5.33929 23.5749 5.22321C20.5178 5.06845 16.7748 4.99107 12.346 4.99107H9.40645C8.42661 4.99107 7.79952 5.2619 7.52516 5.80357C7.29 6.30655 7.17242 6.90625 7.17242 7.60268C7.17242 8.3378 7.29 8.95685 7.52516 9.45982C7.79952 9.92411 8.42661 10.1562 9.40645 10.1562H23.8689C26.534 10.1562 28.4937 10.6979 29.7479 11.7812C31.0021 12.8646 31.6292 14.2381 31.6292 15.9018V19.3259C31.6292 20.0223 31.5704 20.7574 31.4528 21.5312C31.3744 22.3051 31.1001 23.0402 30.6298 23.7366C30.1594 24.3943 29.3952 24.936 28.3369 25.3616C27.2787 25.7872 25.7894 26 23.8689 26H7.23121Z" fill="#F6F6F6"/>
<path d="M36.0853 26V0H40.9061L42.3759 0.696428C43.5125 0.502976 44.9039 0.348214 46.55 0.232142C48.1961 0.0773805 50.1558 0 52.429 0H55.3685C56.5052 0 57.6026 0.154762 58.6608 0.464285C59.719 0.735118 60.5029 1.14137 61.0124 1.68303C62.0315 1.18006 63.4424 0.773809 65.2453 0.464285C67.0482 0.154762 69.3998 0 72.3002 0H75.2397C77.1994 0 78.7083 0.270833 79.7665 0.8125C80.8248 1.35417 81.5694 2.03125 82.0006 2.84375C82.4709 3.65625 82.7452 4.48809 82.8236 5.33929C82.9412 6.15179 83 6.84821 83 7.42857V26H75.8276V7.3125C75.8276 5.76488 74.8869 4.99107 73.0056 4.99107H64.775C64.1479 4.99107 63.7168 5.06845 63.4816 5.22321C63.2464 5.37798 63.1289 5.72619 63.1289 6.26786V26H55.9565V7.3125C55.9565 5.76488 55.0158 4.99107 53.1345 4.99107H45.0215C44.2768 4.99107 43.7869 5.06845 43.5517 5.22321C43.3557 5.33929 43.2577 5.6875 43.2577 6.26786V26H36.0853Z" fill="#F6F6F6"/>
</svg>
