<svg width="27" height="22" viewBox="0 0 27 22" fill="none" xmlns="http://www.w3.org/2000/svg">
<path d="M26.9287 2.93837C25.9618 3.3625 24.9316 3.64362 23.8575 3.78012C24.9625 3.12037 25.8058 2.08362 26.2023 0.834C25.1721 1.44825 24.0346 1.88213 22.8223 2.12425C21.8441 1.08263 20.4498 0.4375 18.9288 0.4375C15.9778 0.4375 13.6021 2.83275 13.6021 5.76912C13.6021 6.19163 13.6378 6.59787 13.7256 6.98462C9.29421 6.7685 5.37309 4.64463 2.73896 1.40925C2.27909 2.20713 2.00934 3.12038 2.00934 4.1035C2.00934 5.9495 2.95996 7.58587 4.37696 8.53325C3.52059 8.517 2.68046 8.26837 1.96871 7.87675C1.96871 7.893 1.96871 7.91412 1.96871 7.93525C1.96871 10.5255 3.81634 12.677 6.23921 13.1726C5.80534 13.2913 5.33246 13.3481 4.84171 13.3481C4.50046 13.3481 4.15596 13.3286 3.83259 13.2571C4.52321 15.368 6.48296 16.9199 8.81321 16.9702C6.99971 18.3889 4.69709 19.2436 2.20434 19.2436C1.76721 19.2436 1.34796 19.2241 0.928711 19.1705C3.28984 20.6931 6.08809 21.5625 9.10571 21.5625C18.9142 21.5625 24.2767 13.4375 24.2767 6.39475C24.2767 6.15912 24.2686 5.93163 24.2572 5.70575C25.3151 4.955 26.204 4.01737 26.9287 2.93837Z" fill="#F6F6F6"/>
</svg>
