<svg width="27" height="16" viewBox="0 0 27 16" fill="none" xmlns="http://www.w3.org/2000/svg">
<path d="M26.6215 13.8144C26.5504 13.6974 26.1104 12.7581 23.9931 10.8274C21.7765 8.80577 22.0743 9.13404 24.744 5.63841C26.3701 3.5095 27.0201 2.2094 26.8167 1.65361C26.6231 1.12382 25.4272 1.26358 25.4272 1.26358L21.4507 1.28633C21.4507 1.28633 21.1562 1.24733 20.9362 1.37572C20.7228 1.50248 20.5855 1.795 20.5855 1.795C20.5855 1.795 19.9553 3.44287 19.115 4.84372C17.3434 7.79982 16.6338 7.95583 16.3443 7.77219C15.6711 7.34478 15.8398 6.05281 15.8398 5.13625C15.8398 2.27116 16.2815 1.07669 14.978 0.767921C14.5446 0.665538 14.227 0.597283 13.1204 0.585907C11.7011 0.571281 10.4986 0.590783 9.81873 0.917432C9.3655 1.1352 9.01647 1.62111 9.22986 1.64874C9.49286 1.68286 10.0884 1.80637 10.4043 2.2289C10.8129 2.77332 10.798 3.99866 10.798 3.99866C10.798 3.99866 11.0329 7.37079 10.2505 7.79007C9.71287 8.07771 8.97677 7.49104 7.39707 4.80797C6.58819 3.43474 5.97616 1.91526 5.97616 1.91526C5.97616 1.91526 5.85872 1.63249 5.64864 1.48135C5.3939 1.29771 5.03661 1.23921 5.03661 1.23921L1.25524 1.26196C1.25524 1.26196 0.687873 1.27821 0.479451 1.52035C0.294187 1.73649 0.464564 2.18178 0.464564 2.18178C0.464564 2.18178 3.42548 8.98616 6.77677 12.4168C9.85181 15.5614 13.3421 15.355 13.3421 15.355H14.9234C14.9234 15.355 15.4015 15.303 15.6446 15.0446C15.8696 14.8073 15.8613 14.3621 15.8613 14.3621C15.8613 14.3621 15.8299 12.277 16.8157 11.9699C17.7867 11.6676 19.034 13.985 20.3556 14.8772C21.3547 15.5516 22.114 15.4038 22.114 15.4038L25.6489 15.355C25.6489 15.355 27.4982 15.2429 26.6215 13.8144Z" fill="#F6F6F6"/>
</svg>
