<svg width="28" height="18" viewBox="0 0 28 18" fill="none" xmlns="http://www.w3.org/2000/svg">
<path d="M26.2683 1.785C25.5504 0.5305 24.7714 0.29975 23.1852 0.212C21.6006 0.106375 17.6161 0.0625 14.1642 0.0625C10.7056 0.0625 6.71943 0.106375 5.13653 0.210375C3.55364 0.29975 2.77294 0.528875 2.04848 1.785C1.30914 3.03787 0.928711 5.19588 0.928711 8.99513C0.928711 8.99837 0.928711 9 0.928711 9C0.928711 9.00325 0.928711 9.00488 0.928711 9.00488V9.00813C0.928711 12.7911 1.30914 14.9654 2.04848 16.2052C2.77294 17.4597 3.55198 17.6873 5.13488 17.7929C6.71943 17.8839 10.7056 17.9375 14.1642 17.9375C17.6161 17.9375 21.6006 17.8839 23.1868 17.7945C24.773 17.6889 25.5521 17.4614 26.2699 16.2069C27.0159 14.967 27.393 12.7927 27.393 9.00975C27.393 9.00975 27.393 9.00488 27.393 9.00163C27.393 9.00163 27.393 8.99837 27.393 8.99675C27.393 5.19588 27.0159 3.03787 26.2683 1.785ZM10.8528 13.875V4.125L19.1229 9L10.8528 13.875Z" fill="#F6F6F6"/>
</svg>
